<svg xmlns="http://www.w3.org/2000/svg" viewBox="0 0 750 500"><g id="freepik--Shadow--inject-458"><path d="M679.40439,455.4408c0,3.3867-136.2865,6.1322-304.40439,6.1322s-304.4044-2.7455-304.4044-6.1322,136.2865-6.1323,304.4044-6.1323,304.40439,2.7455,304.40439,6.1323Z" style="fill:#f5f5f5;"></path></g><g id="freepik--Bus--inject-458"><g><g><rect x="293.1" y="379.5638" width="67.96439" height="54.0889" style="fill:#1FAB89;"></rect><rect x="293.1" y="379.5638" width="67.96439" height="54.0889" style="opacity:.5;"></rect></g><g><ellipse cx="320.3462" cy="424.22248" rx="19.4234" ry="30.38893" style="fill:#263238;"></ellipse><path d="M322.93729,424.2225c0,10.4896,2.5755,24.9278-2.5911,30.3889h-16.8323c-10.7272,0-19.4234-13.6056-19.4234-30.3889s8.6962-30.389,19.4234-30.389c4.6141,0,16.2873-.5511,16.8323,0,4.9982,5.0535,2.5911,20.8246,2.5911,30.389Z" style="fill:#263238;"></path><ellipse cx="321.69697" cy="423.29223" rx="9.90408" ry="15.49548" style="fill:#fff; opacity:.3;"></ellipse></g><g><rect x="516.20989" y="379.5638" width="67.9643" height="54.0889" style="fill:#1FAB89;"></rect><rect x="516.20989" y="379.5638" width="67.9643" height="54.0889" style="opacity:.5;"></rect></g><g><ellipse cx="543.45599" cy="424.22248" rx="19.4234" ry="30.38893" style="fill:#263238;"></ellipse><path d="M546.04709,424.2225c0,10.4896,2.5756,24.9278-2.59109,30.3889h-16.83221c-10.7273,0-19.4234-13.6056-19.4234-30.3889s8.6961-30.389,19.4234-30.389c4.614,0,16.28721-.5511,16.83221,0,4.99829,5.0535,2.59109,20.8246,2.59109,30.389Z" style="fill:#263238;"></path><ellipse cx="544.80679" cy="423.29223" rx="9.9041" ry="15.49548" style="fill:#fff; opacity:.3;"></ellipse></g><g><ellipse cx="454.61719" cy="424.22248" rx="19.4234" ry="30.38893" style="fill:#263238;"></ellipse><path d="M457.20839,424.2225c0,10.4896,2.5755,24.9278-2.5912,30.3889h-16.83219c-10.72731,0-19.42341-13.6056-19.42341-30.3889s8.6961-30.389,19.42341-30.389c4.614,0,16.28719-.5511,16.83219,0,4.9983,5.0535,2.5912,20.8246,2.5912,30.389Z" style="fill:#263238;"></path><ellipse cx="455.968" cy="423.29223" rx="9.9041" ry="15.49548" style="fill:#fff; opacity:.3;"></ellipse></g><path d="M437.785,393.8335c4.61409,0,16.28719-.5511,16.83219,0,10.7273,0,19.4234,13.6056,19.4234,30.389s-8.6961,30.3889-19.4234,30.3889h-16.83219c-10.72731,0-19.42351-13.6056-19.42351-30.3889s8.6962-30.389,19.42351-30.389Z" style="opacity:.3;"></path><g><ellipse cx="201.0412" cy="424.22248" rx="19.4234" ry="30.38893" style="fill:#263238;"></ellipse><path d="M203.6323,424.2225c0,10.4896,2.5756,24.9278-2.5911,30.3889h-16.8323c-10.7272,0-19.4233-13.6056-19.4233-30.3889s8.6961-30.389,19.4233-30.389c4.6141,0,16.2873-.5511,16.8323,0,4.9983,5.0535,2.5911,20.8246,2.5911,30.389Z" style="fill:#263238;"></path><ellipse cx="202.392" cy="423.29223" rx="9.9041" ry="15.49548" style="fill:#fff; opacity:.3;"></ellipse></g><path d="M184.0718,393.8335c4.6141,0,16.2872-.5511,16.8323,0,10.7272,0,19.4234,13.6056,19.4234,30.389s-8.6962,30.3889-19.4234,30.3889h-16.8323c-10.7273,0-19.4234-13.6056-19.4234-30.3889s8.6961-30.389,19.4234-30.389Z" style="opacity:.3;"></path><path d="M685.95279,185.241c0-9.5679-7.7563-17.3242-17.3242-17.3242H150.4845c-17.35796,.2268-29.82417-1.1814-35.7313,11.8571-5.7378,12.6646-13.0926,38.3964-25.0123,89.5924-7.4405,31.9571-22.3912,108.0514-17.8604,139.9085l1.2673,6.2043c.977,10.3043,9.5929,18.1736,19.8977,18.1736h206.5372c-1.2411-4.1218-1.9344-8.6725-1.9344-13.461,0-18.5432,10.3275-33.5754,23.067-33.5754s23.0671,15.0322,23.0671,33.5754c0,4.7885-.69339,9.3392-1.93439,13.461h183.22459c-1.241-4.1218-1.9344-8.6725-1.9344-13.461,0-18.5432,10.3275-33.5754,23.0671-33.5754s23.0671,15.0322,23.0671,33.5754c0,4.7885-.69339,9.3392-1.93439,13.461h98.62709c11.039,0,19.9877-8.9888,19.9877-20.077V185.241Z" style="fill:#1FAB89;"></path><path d="M685.95279,397.0899h-9.6453v25.9571h7.2846s2.3607-3.922,2.3607-8.7601v-17.197Z" style="fill:#fff; opacity:.5;"></path><path d="M370.31969,418.0222h-7.4158c-1.4361,0-2.6003-1.1642-2.6003-2.6003h0c0-1.4361,1.1642-2.6003,2.6003-2.6003h7.4158c1.4361,0,2.60031,1.1642,2.60031,2.6003h0c0,1.4361-1.16421,2.6003-2.60031,2.6003Z" style="fill:#fff;"></path><path d="M500.23779,416.3092h-7.4157c-1.43609,0-2.6003-1.1642-2.6003-2.6003h0c0-1.4361,1.16421-2.6003,2.6003-2.6003h7.4157c1.4361,0,2.6003,1.1642,2.6003,2.6003h0c0,1.4361-1.1642,2.6003-2.6003,2.6003Z" style="fill:#fff;"></path><path d="M626.02549,416.4169h-7.4157c-1.4361,0-2.6003-1.1642-2.6003-2.6004h0c0-1.4361,1.1642-2.6003,2.6003-2.6003h7.4157c1.4361,0,2.6003,1.1642,2.6003,2.6003h0c0,1.4362-1.1642,2.6004-2.6003,2.6004Z" style="fill:#fff;"></path><path d="M75.0601,395.8558s1.7516,11.5875,10.5095,12.8001c8.758,1.2126,31.1244,.2695,31.1244,.2695l-1.68394-4.3034c-1.91636-4.8973-6.59716-8.1553-11.85516-8.2516l-28.0948-.5146Z" style="fill:#fff; opacity:.4;"></path><rect x="127.63267" y="422.454" width="38.46503" height="11.1987" style="fill:#263238;"></rect><path d="M89.7201,427.1051c0,1.6592-1.0019,3.0043-2.2379,3.0043-1.2359,0-2.2379-1.3451-2.2379-3.0043,0-1.6593,1.002-3.0044,2.2379-3.0044,1.236,0,2.2379,1.3451,2.2379,3.0044Z" style="fill:#fff;"></path><ellipse cx="94.9069" cy="427.1051" rx="1.4924" ry="2.0035" style="fill:#fff;"></ellipse><path d="M74.3024,421.4752h23.3638c6.7254,0,12.1774,5.4521,12.1774,12.1775h0" style="fill:none; stroke:#263238; stroke-miterlimit:10;"></path><path d="M204.0103,427.1051c0,1.6592,1.0019,3.0043,2.2379,3.0043s2.2379-1.3451,2.2379-3.0043c0-1.6593-1.0019-3.0044-2.2379-3.0044s-2.2379,1.3451-2.2379,3.0044Z" style="fill:#fff;"></path><ellipse cx="198.8235" cy="427.1051" rx="1.4924" ry="2.0035" style="fill:#fff;"></ellipse><path d="M232.7285,421.4752h-36.6643c-6.7254,0-12.1774,5.4521-12.1774,12.1775h0" style="fill:none; stroke:#263238; stroke-miterlimit:10;"></path><path d="M343.32289,423.047h180.7097" style="fill:none; stroke:#263238; stroke-miterlimit:10;"></path><path d="M568.31409,423.047h114.5347" style="fill:none; stroke:#263238; stroke-miterlimit:10;"></path><path d="M580.47929,423.2922v-59.5444" style="fill:none; stroke:#263238; stroke-miterlimit:10;"></path><path d="M635.29229,423.047v-77.5342" style="fill:none; stroke:#263238; stroke-miterlimit:10;"></path><path d="M353.75739,423.047v-59.2992" style="fill:none; stroke:#263238; stroke-miterlimit:10;"></path><circle cx="87.1564" cy="402.5093" r="5.5584" style="fill:#fff; opacity:.4;"></circle><g><path d="M228.0327,395.8558s-1.7516,11.5875-10.5095,12.8001c-8.758,1.2126-31.1244,.2695-31.1244,.2695l1.8908-4.8319c1.7911-4.5775,6.1662-7.6227,11.0808-7.7127l28.6623-.525Z" style="fill:#fff; opacity:.4;"></path><circle cx="212.7895" cy="402.5093" r="5.5584" style="fill:#fff; opacity:.4;"></circle></g><path d="M70.874,388.5351c2.1991,.03,166.2291,0,166.2291,0" style="fill:none; stroke:#263238; stroke-miterlimit:10;"></path><g><polygon points="229.8005 270.3333 102.3058 270.3333 102.7924 250.8057 229.8005 250.8057 229.8005 270.3333"></polygon><rect x="122.40898" y="255.8296" width="6.99812" height="11.0026" style="fill:#fff;"></rect><rect x="130.91727" y="255.8296" width="6.70173" height="11.0026" style="fill:#fff;"></rect><rect x="149.0574" y="258.8615" width="54.9205" height="4.337" style="fill:#fff;"></rect></g><path d="M114.384,179.7739h123.9078l-8.9249,58.0708H96.9293s11.5484-47.1685,17.4547-58.0708Z" style="fill:#263238;"></path><polygon points="345.68359 186.0101 685.95279 186.6655 685.95279 239.6233 390.15569 241.106 345.68359 186.0101" style="fill:#263238;"></polygon><path d="M86.2432,283.5055l133.7971,.739-11.4678,92.866-137.1256,.0001c-.6778,.1197,5.2652-44.5121,10.7386-73.6956,1.5804-8.4265,2.8905-16.0226,4.0577-19.9095Z" style="fill:#263238;"></path><polyline points="229.3669 237.8447 254.4511 237.8447 353.75739 363.7478 635.29229 363.7478 635.29229 285.6188 372.92 285.6188 293.1 179.7739 233.1823 179.7739 223.3092 237.8447" style="fill:#263238;"></polyline><polygon points="220.3275 284.0335 250.5098 284.0335 306.5356 377.1108 208.5725 377.1105 220.3275 284.0335" style="fill:#263238;"></polygon><path d="M114.3841,179.7739c-5.7378,12.6646-13.0926,38.3964-25.0124,89.5924-7.4405,31.9571-22.3911,108.0514-17.8603,139.9085l1.2673,6.2043c.977,10.3043,9.5928,18.1736,19.8976,18.1736H231.1531l34.3791-265.7359h-115.4169c-17.3579,.2268-29.82412-1.1814-35.7312,11.8571Z" style="fill:#fff; opacity:.2;"></path><polygon points="275.445 315.3924 275.445 379.5638 278.7178 379.5638 278.7178 317.4379 275.445 315.3924" style="fill:#1FAB89;"></polygon><rect x="421.61159" y="184.1434" width="3.0749" height="66.7961" style="fill:#1FAB89;"></rect><rect x="372.92" y="281.6489" width="3.07489" height="86.3364" style="fill:#1FAB89;"></rect><rect x="510.235" y="281.6489" width="3.07479" height="86.3364" style="fill:#1FAB89;"></rect><rect x="496.66339" y="184.1434" width="3.0749" height="66.7961" style="fill:#1FAB89;"></rect><rect x="584.32619" y="184.1434" width="3.0749" height="66.7961" style="fill:#1FAB89;"></rect><polygon points="74.2319 351.3753 195.9418 284.0335 238.2918 284.0335 71.4469 377.1106 74.2319 351.3753" style="fill:#fff; opacity:.3;"></polygon><polygon points="75.5313 342.4826 181.8331 284.0335 171.0352 283.9349 76.5043 334.6985 75.5313 342.4826" style="fill:#fff; opacity:.3;"></polygon><polygon points="101.029 221.792 193.0652 180.2062 229.8005 179.7739 96.9293 237.8447 101.029 221.792" style="fill:#fff; opacity:.3;"></polygon><line x1="635.29229" y1="285.6188" x2="685.95279" y2="285.6188" style="fill:none; stroke:#263238; stroke-miterlimit:10;"></line><polygon points="375.99489 328.5294 468.81619 285.5325 510.235 285.6188 510.235 305.237 375.99489 363.7478 375.99489 328.5294" style="fill:#fff; opacity:.1;"></polygon><polyline points="513.30979 352.2076 635.29229 305.808 635.133 285.6045 513.30979 332.2925 513.30979 347.0831" style="fill:#fff; opacity:.1;"></polyline><polygon points="635.13289 313.9533 513.30989 360.6413 513.30989 363.7478 525.67479 363.5799 635.29229 321.2051 635.13289 313.9533" style="fill:#fff; opacity:.1;"></polygon><polygon points="269.6629 257.1306 327.08219 224.8358 353.75739 260.2083 297.5932 292.5414 269.6629 257.1306" style="fill:#fff; opacity:.1;"></polygon><polygon points="306.5356 303.8787 362.46939 271.7608 368.26039 279.44 314.4819 313.9533 306.5356 303.8787" style="fill:#fff; opacity:.1;"></polygon><path d="M424.68649,240.9329l116.1163-54.547h66.2616s-102.1381,54.9365-103.4056,54.547-78.9723,0-78.9723,0Z" style="fill:#fff; opacity:.1;"></path><polygon points="520.627 241.106 631.17229 186.56 655.31339 186.56 548.26459 240.3135 520.627 241.106" style="fill:#fff; opacity:.1;"></polygon><g><g><path d="M71.9835,310.4627h0c-4.3831,0-7.9363-3.5532-7.9363-7.9363v-27.9332c0-4.3831,3.5532-7.9363,7.9363-7.9363h0c4.3831,0,7.9364,3.5532,7.9364,7.9363v27.9332c0,4.3831-3.5533,7.9363-7.9364,7.9363Z" style="fill:#1FAB89;"></path><path d="M70.0892,269.3618s2.0609-7.4707,7.342-8.2435c5.281-.7729,14.6838,0,14.6838,0v3.95s-10.8197-.4293-12.6229,0c-1.8033,.4294-3.8642,5.968-3.8642,5.968l-5.5387-1.6745Z" style="fill:#1FAB89;"></path></g><g style="opacity:.3;"><path d="M71.9835,310.4627h0c-4.3831,0-7.9363-3.5532-7.9363-7.9363v-27.9332c0-4.3831,3.5532-7.9363,7.9363-7.9363h0c4.3831,0,7.9364,3.5532,7.9364,7.9363v27.9332c0,4.3831-3.5533,7.9363-7.9364,7.9363Z" style="fill:#fff;"></path><path d="M70.0892,269.3618s2.0609-7.4707,7.342-8.2435c5.281-.7729,14.6838,0,14.6838,0v3.95s-10.8197-.4293-12.6229,0c-1.8033,.4294-3.8642,5.968-3.8642,5.968l-5.5387-1.6745Z" style="fill:#fff;"></path></g></g><g><g><rect x="224.2579" y="269.598" width="15.8727" height="43.8058" rx="7.9363" ry="7.9363" style="fill:#1FAB89;"></rect><path d="M230.3,272.3029s2.0608-7.4707,7.3419-8.2436c5.281-.7728,14.6838,0,14.6838,0v3.9501s-10.8196-.4294-12.6229,0c-1.8033,.4293-3.8642,5.968-3.8642,5.968l-5.5386-1.6745Z" style="fill:#1FAB89;"></path></g><g style="opacity:.3;"><rect x="224.2579" y="269.598" width="15.8727" height="43.8058" rx="7.9363" ry="7.9363" style="fill:#fff;"></rect><path d="M230.3,272.3029s2.0608-7.4707,7.3419-8.2436c5.281-.7728,14.6838,0,14.6838,0v3.9501s-10.8196-.4294-12.6229,0c-1.8033,.4293-3.8642,5.968-3.8642,5.968l-5.5386-1.6745Z" style="fill:#fff;"></path></g></g><path d="M513.77719,422.8682v-59.1406" style="fill:none; stroke:#263238; stroke-miterlimit:10;"></path></g></g></svg>
