<svg xmlns="http://www.w3.org/2000/svg" viewBox="0 0 500 500"><g id="freepik--Screen--inject-274"><path d="M390.56,41.48H363.4a6.74,6.74,0,0,0-6.59,6.89v4.92a6.76,6.76,0,0,1-6.6,6.9l-52.94,0a6.75,6.75,0,0,1-6.59-6.89V48.32a6.75,6.75,0,0,0-6.6-6.9H250.76a21.36,21.36,0,0,0-21.38,21.37l-.07,342.79a21.37,21.37,0,0,0,21.36,21.37l139.8.08a21.36,21.36,0,0,0,21.38-21.36l.07-342.79A21.38,21.38,0,0,0,390.56,41.48Z" style="fill:#fff"></path><path d="M390.56,41.48l.74,0a14.52,14.52,0,0,1,2.16.16,21.26,21.26,0,0,1,12.89,6.72,21.38,21.38,0,0,1,4.07,6.38,22.09,22.09,0,0,1,1.6,8.68c0,3.15,0,6.52,0,10.07,0,28.48,0,69.68.07,120.58s0,111.53,0,178.84v32a22.83,22.83,0,0,1-.82,6.52,21.73,21.73,0,0,1-2.73,6,23.2,23.2,0,0,1-4.45,4.94,21.62,21.62,0,0,1-12.34,4.79c-4.48.13-8.93,0-13.43.06H351.15l-55.86,0-28.57,0H252.29a22.59,22.59,0,0,1-13.92-3.84,21.84,21.84,0,0,1-8.47-11.7,23.67,23.67,0,0,1-.89-7.23v-7.21q0-14.38,0-28.57,0-28.38,0-55.88c0-36.63,0-72,0-105.62s0-65.64.05-95.58q0-22.44,0-43.31c0-1.74,0-3.47,0-5.19,0-.86.07-1.73.12-2.59s.21-1.71.43-2.54a21.91,21.91,0,0,1,4.5-9.06,21.73,21.73,0,0,1,17.43-7.72l18.63,0h13.35a6.79,6.79,0,0,1,4.2,1.17,7.1,7.1,0,0,1,2.62,3.43,11.34,11.34,0,0,1,.43,4.23v2.08a15.07,15.07,0,0,0,.07,2,6.8,6.8,0,0,0,1.59,3.58,6.34,6.34,0,0,0,3.27,2,7.27,7.27,0,0,0,1.93.19h9.68l28.18,0L348,60c1,0,2,.05,2.91,0a6.32,6.32,0,0,0,2.62-.92,6.77,6.77,0,0,0,3-4.31,11.25,11.25,0,0,0,.17-2.59c0-.87,0-1.72,0-2.56a14.79,14.79,0,0,1,.11-2.49,7.42,7.42,0,0,1,.8-2.29,6.81,6.81,0,0,1,3.42-3,10.71,10.71,0,0,1,4.24-.45l13.86,0,8.53,0,2.9,0-2.9,0-8.53,0-13.86,0a10.62,10.62,0,0,0-4.17.45A6.54,6.54,0,0,0,357.8,45a6.83,6.83,0,0,0-.78,2.22,14.26,14.26,0,0,0-.1,2.46v2.56a11.88,11.88,0,0,1-.17,2.64,7,7,0,0,1-3.09,4.47,6.47,6.47,0,0,1-2.72,1c-1,.09-1.94,0-2.94,0H297.71a7.27,7.27,0,0,1-2-.2A6.67,6.67,0,0,1,292.25,58a7.18,7.18,0,0,1-1.69-3.77,16.19,16.19,0,0,1-.07-2.08V50.06a11.23,11.23,0,0,0-.42-4.1,6.61,6.61,0,0,0-2.47-3.24,6.42,6.42,0,0,0-4-1.1h-32a21.26,21.26,0,0,0-17.09,7.58,21.27,21.27,0,0,0-4.39,8.87c-.22.81-.28,1.66-.43,2.49s-.1,1.69-.11,2.54v5.19q0,20.83,0,43.31c0,29.94,0,61.92,0,95.58s0,69,0,105.62v55.88q0,14.18,0,28.57v7.21a23,23,0,0,0,.87,7.06,21.23,21.23,0,0,0,8.24,11.37,21.89,21.89,0,0,0,13.57,3.74h14.43l28.57,0,55.86,0,27.22,0c4.48,0,9,.08,13.39,0a21.09,21.09,0,0,0,12-4.66,22.29,22.29,0,0,0,4.34-4.81,21,21,0,0,0,2.66-5.86,22.45,22.45,0,0,0,.8-6.37v-6.48q0-12.92,0-25.54c0-67.31.07-127.93.1-178.84s.09-92.1.12-120.58c0-3.55,0-6.92,0-10.07a22,22,0,0,0-1.56-8.61,21.44,21.44,0,0,0-4-6.35,21.38,21.38,0,0,0-12.79-6.76,17,17,0,0,0-2.16-.19Z" style="fill:#263238"></path><path d="M394.69,76.1c0,.09-3.53.19-7.88.23s-7.89,0-7.89-.1,3.53-.2,7.88-.23S394.69,76,394.69,76.1Z" style="fill:#263238"></path><path d="M394.73,80.13c0,.1-3.53.2-7.89.24s-7.89,0-7.89-.11,3.53-.19,7.89-.23S394.73,80,394.73,80.13Z" style="fill:#263238"></path><path d="M394.76,84.17c0,.09-3.53.2-7.89.23s-7.89,0-7.89-.1,3.53-.19,7.89-.23S394.76,84.08,394.76,84.17Z" style="fill:#263238"></path><path d="M251.18,88.78l.33,0,.91,0,3.37-.08-.09.09c0-.75,0-1.56,0-2.44,0-.46,0-.88,0-1.41a1.3,1.3,0,0,1,1.13-1c.54,0,1,0,1.61,0a1.3,1.3,0,0,1,1.1,1.3c0,1.14,0,2.33,0,3.56l-.16-.15,4.25,0-.16.17c0-1.71,0-3.48,0-5.3,0-.45,0-.9,0-1.35a1.37,1.37,0,0,0-.59-1L261,79.2l-1.79-1.77-.87-.86a2.07,2.07,0,0,0-.88-.66,1.17,1.17,0,0,0-1,.19c-.25.22-.53.53-.79.78l-1.52,1.54c-1,1-2,1.9-2.69,2.76a3.07,3.07,0,0,0-.21,1.59v1.5c0,.92,0,1.72,0,2.41s0,1.13,0,1.54a3.64,3.64,0,0,1,0,.56s0-.17,0-.51,0-.91,0-1.52l-.05-2.43q0-.72,0-1.53c0-.27,0-.55,0-.84a1.63,1.63,0,0,1,.23-.88c.79-1,1.72-1.82,2.69-2.85.49-.5,1-1,1.51-1.55.28-.26.5-.53.82-.81a1.47,1.47,0,0,1,1.24-.24,2.33,2.33,0,0,1,1,.73l.87.85L261.2,79l1.86,1.83a3,3,0,0,1,.47.52,1.39,1.39,0,0,1,.23.71c0,.45,0,.9,0,1.36,0,1.81,0,3.58,0,5.29v.17h-.16l-4.25,0h-.16v-.16c0-1.23,0-2.42,0-3.56a1,1,0,0,0-.86-1c-.49,0-1.06,0-1.54,0a1,1,0,0,0-.91.83c0,.43,0,.92,0,1.36v2.54h-.1l-3.42,0h-.89Z" style="fill:#263238"></path><rect x="239.69" y="233.44" width="164.46" height="40.95" style="fill:#f5f5f5"></rect><rect x="358.79" y="252.88" width="38.71" height="14.83" rx="7.42" style="fill:#1FAB89"></rect><path d="M246.53,127.9v1h1.72v.69h-1.72v1.36h-.87V127.2h2.82v.7Z" style="fill:#263238"></path><path d="M251.44,130.93l-.72-1h-.79v1h-.86V127.2h1.61c1,0,1.62.52,1.62,1.36a1.19,1.19,0,0,1-.77,1.17l.84,1.2Zm-.81-3h-.7v1.3h.7c.53,0,.8-.25.8-.65S251.16,127.91,250.63,127.91Z" style="fill:#263238"></path><path d="M252.75,129.07a2,2,0,1,1,2,1.93A1.93,1.93,0,0,1,252.75,129.07Zm3.2,0a1.17,1.17,0,1,0-1.17,1.19A1.13,1.13,0,0,0,256,129.07Z" style="fill:#263238"></path><path d="M260.87,130.93V128.7l-1.1,1.84h-.38l-1.1-1.8v2.19h-.81V127.2h.72l1.39,2.32L261,127.2h.7l0,3.73Z" style="fill:#263238"></path><path d="M332,127.91h-1.19v-.71H334v.71h-1.19v3H332Z"></path><path d="M334.2,129.07a2,2,0,1,1,2,1.93A1.93,1.93,0,0,1,334.2,129.07Zm3.21,0a1.17,1.17,0,1,0-1.17,1.19A1.13,1.13,0,0,0,337.41,129.07Z"></path><path d="M244.58,162.65h1.57a1.87,1.87,0,1,1,0,3.73h-1.57Zm1.54,3.27a1.4,1.4,0,1,0,0-2.8h-1v2.8Z" style="fill:#263238"></path><path d="M251.68,165.92v.46H249v-3.73h2.63v.47h-2.1v1.14h1.87v.45h-1.87v1.21Z" style="fill:#263238"></path><path d="M255.55,164c0,.81-.58,1.3-1.55,1.3h-.92v1.13h-.53v-3.73H254C255,162.65,255.55,163.14,255.55,164Zm-.53,0c0-.53-.35-.83-1-.83h-.9v1.67h.9C254.67,164.79,255,164.48,255,164Z" style="fill:#263238"></path><path d="M258.53,165.45h-2l-.41.93h-.54l1.68-3.73h.53l1.69,3.73h-.55Zm-.19-.43-.81-1.82-.8,1.82Z" style="fill:#263238"></path><path d="M262.54,166.38l-.8-1.14h-1.16v1.13h-.53v-3.73h1.45c1,0,1.56.49,1.56,1.3a1.18,1.18,0,0,1-.82,1.18l.88,1.25Zm0-2.43c0-.53-.36-.83-1-.83h-.91v1.67h.91C262.17,164.79,262.53,164.48,262.53,164Z" style="fill:#263238"></path><path d="M264.61,163.12h-1.28v-.47h3.08v.47h-1.28v3.26h-.52Z" style="fill:#263238"></path><path d="M266.89,164.77v-2.12h.53v2.1c0,.83.38,1.2,1.05,1.2s1.06-.37,1.06-1.2v-2.1H270v2.12a1.58,1.58,0,1,1-3.15,0Z" style="fill:#263238"></path><path d="M273.63,166.38l-.81-1.14h-1.15v1.13h-.54v-3.73h1.46c1,0,1.55.49,1.55,1.3a1.17,1.17,0,0,1-.82,1.18l.89,1.25Zm0-2.43c0-.53-.36-.83-1-.83h-.9v1.67h.9C273.25,164.79,273.61,164.48,273.61,164Z" style="fill:#263238"></path><path d="M277.71,165.92v.46H275v-3.73h2.63v.47h-2.1v1.14h1.87v.45h-1.87v1.21Z" style="fill:#263238"></path><path d="M302.18,245.81a1.81,1.81,0,0,1-1.9,2,1.94,1.94,0,0,1-1-.26l.32-.63a1.18,1.18,0,0,0,.69.19,1,1,0,0,0,1.05-1.09,1.26,1.26,0,0,1-.92.33,1.18,1.18,0,0,1-1.29-1.16,1.29,1.29,0,0,1,1.41-1.24C301.55,244,302.18,244.61,302.18,245.81Zm-1-.65c0-.32-.24-.55-.65-.55a.56.56,0,1,0,0,1.11A.58.58,0,0,0,301.22,245.16Z" style="fill:#263238"></path><path d="M302.57,245.36a.52.52,0,0,1,1,0,.52.52,0,1,1-1,0Zm0,1.91a.52.52,0,0,1,1,0,.52.52,0,1,1-1,0Z" style="fill:#263238"></path><path d="M304,245.89c0-1.23.68-1.93,1.6-1.93s1.6.7,1.6,1.93-.68,1.93-1.6,1.93S304,247.12,304,245.89Zm2.33,0c0-.85-.3-1.2-.73-1.2s-.73.35-.73,1.2.3,1.2.73,1.2S306.32,246.74,306.32,245.89Z" style="fill:#263238"></path><path d="M307.61,245.89c0-1.23.68-1.93,1.59-1.93s1.6.7,1.6,1.93-.68,1.93-1.6,1.93S307.61,247.12,307.61,245.89Zm2.32,0c0-.85-.3-1.2-.73-1.2s-.72.35-.72,1.2.3,1.2.72,1.2S309.93,246.74,309.93,245.89Z" style="fill:#263238"></path><path d="M312.8,245.92h1.51v.67H312.8Z" style="fill:#263238"></path><path d="M317.73,244v3.72h-.86v-3h-.75V244Z" style="fill:#263238"></path><path d="M321.16,247.05v.7h-2.81v-.56l1.43-1.35c.33-.32.39-.51.39-.69s-.2-.46-.59-.46a.92.92,0,0,0-.78.37l-.62-.41a1.71,1.71,0,0,1,1.48-.69c.83,0,1.38.43,1.38,1.1a1.48,1.48,0,0,1-.62,1.18l-.86.81Z" style="fill:#263238"></path><path d="M321.49,245.36a.52.52,0,0,1,1,0,.52.52,0,0,1-1,0Zm0,1.91a.52.52,0,0,1,1,0,.52.52,0,1,1-1,0Z" style="fill:#263238"></path><path d="M322.92,245.89c0-1.23.68-1.93,1.59-1.93s1.6.7,1.6,1.93-.68,1.93-1.6,1.93S322.92,247.12,322.92,245.89Zm2.32,0c0-.85-.3-1.2-.73-1.2s-.72.35-.72,1.2.3,1.2.72,1.2S325.24,246.74,325.24,245.89Z" style="fill:#263238"></path><path d="M326.53,245.89c0-1.23.68-1.93,1.6-1.93s1.6.7,1.6,1.93-.68,1.93-1.6,1.93S326.53,247.12,326.53,245.89Zm2.33,0c0-.85-.3-1.2-.73-1.2s-.73.35-.73,1.2.3,1.2.73,1.2S328.86,246.74,328.86,245.89Z" style="fill:#263238"></path><path d="M335.12,245.38c0,.83-.62,1.35-1.62,1.35h-.75v1h-.86V244h1.61C334.5,244,335.12,244.54,335.12,245.38Zm-.87,0c0-.41-.27-.65-.8-.65h-.7V246h.7C334,246,334.25,245.78,334.25,245.38Z" style="fill:#263238"></path><path d="M339.12,247.75v-2.23l-1.1,1.84h-.39l-1.09-1.79v2.18h-.81V244h.71l1.4,2.31,1.37-2.31h.71v3.72Z" style="fill:#263238"></path><path d="M388,219.81H341.3a8.06,8.06,0,0,1-8.07-8.06h0a8.06,8.06,0,0,1,8.07-8.06H388a8.06,8.06,0,0,1,8.06,8.06h0A8.06,8.06,0,0,1,388,219.81Z" style="fill:#1FAB89"></path><path d="M353.06,213l.3-.65a2.23,2.23,0,0,0,1.24.39c.52,0,.73-.17.73-.4,0-.71-2.19-.22-2.19-1.63,0-.64.52-1.17,1.59-1.17a2.55,2.55,0,0,1,1.31.33l-.27.67a2.13,2.13,0,0,0-1-.3c-.51,0-.71.19-.71.43,0,.7,2.19.22,2.19,1.6,0,.63-.52,1.17-1.6,1.17A2.7,2.7,0,0,1,353.06,213Z" style="fill:#fff"></path><path d="M359.71,212.63v.7H356.8v-3.77h2.85v.7h-2v.81h1.75v.68h-1.75v.88Z" style="fill:#fff"></path><path d="M362.89,212.52h-1.75l-.33.81h-.9l1.68-3.77h.87l1.68,3.77h-.91Zm-.27-.67-.6-1.44-.6,1.44Z" style="fill:#fff"></path><path d="M366.94,213.33l-.73-1.05h-.8v1.05h-.88v-3.77h1.64c1,0,1.63.52,1.63,1.36a1.22,1.22,0,0,1-.77,1.19l.84,1.22Zm-.82-3.06h-.71v1.31h.71c.53,0,.8-.25.8-.66S366.65,210.27,366.12,210.27Z" style="fill:#fff"></path><path d="M368.26,211.44a2.07,2.07,0,0,1,3.59-1.28l-.56.52a1.18,1.18,0,0,0-.94-.45,1.21,1.21,0,0,0,0,2.42,1.18,1.18,0,0,0,.94-.45l.56.52a2.07,2.07,0,0,1-3.59-1.28Z" style="fill:#fff"></path><path d="M375.9,209.56v3.77H375v-1.55h-1.72v1.55h-.87v-3.77h.87V211H375v-1.48Z" style="fill:#fff"></path><path d="M375,262v1h-3.89v-.78l2-1.87c.46-.44.54-.7.54-.95s-.28-.64-.83-.64a1.26,1.26,0,0,0-1.06.51l-.87-.55a2.39,2.39,0,0,1,2-1c1.15,0,1.91.59,1.91,1.52a2.06,2.06,0,0,1-.86,1.63L372.76,262Z" style="fill:#fff"></path><path d="M375.45,260.41c0-1.7.94-2.66,2.2-2.66s2.21,1,2.21,2.66-.93,2.66-2.21,2.66S375.45,262.11,375.45,260.41Zm3.21,0c0-1.17-.41-1.65-1-1.65s-1,.48-1,1.65.42,1.66,1,1.66S378.66,261.58,378.66,260.41Z" style="fill:#fff"></path><path d="M385.23,261.45l.76.71a2.63,2.63,0,0,1-2.12.91,2.67,2.67,0,0,1-2.67-1.84h-.83v-.62h.72a1.27,1.27,0,0,1,0-.2,1.41,1.41,0,0,1,0-.2h-.72v-.61h.83a2.68,2.68,0,0,1,2.67-1.85,2.63,2.63,0,0,1,2.12.91l-.76.71a1.66,1.66,0,0,0-1.3-.61,1.58,1.58,0,0,0-1.45.84h1.86v.61h-2a1.41,1.41,0,0,0,0,.2,1.27,1.27,0,0,0,0,.2h2v.62h-1.86a1.59,1.59,0,0,0,1.45.83A1.66,1.66,0,0,0,385.23,261.45Z" style="fill:#fff"></path><path d="M333.81,166.38l-.8-1.14h-1.16v1.13h-.53v-3.73h1.45c1,0,1.56.49,1.56,1.3a1.18,1.18,0,0,1-.82,1.18l.88,1.25Zm0-2.43c0-.53-.35-.83-1-.83h-.91v1.67h.91C333.44,164.79,333.79,164.49,333.79,164Z"></path><path d="M337.89,165.92v.46h-2.7v-3.73h2.63v.47h-2.1v1.14h1.87v.45h-1.87v1.21Z"></path><path d="M339.5,163.12h-1.28v-.47h3.08v.47H340v3.26h-.52Z"></path><path d="M341.78,164.77v-2.12h.53v2.1c0,.83.38,1.2,1.05,1.2s1.06-.37,1.06-1.2v-2.1h.51v2.12a1.58,1.58,0,1,1-3.15,0Z"></path><path d="M348.52,166.38l-.81-1.14h-1.15v1.13H346v-3.73h1.45c1,0,1.55.49,1.55,1.3a1.18,1.18,0,0,1-.82,1.18l.89,1.25Zm0-2.43c0-.53-.36-.83-1-.83h-.9v1.67h.9C348.14,164.79,348.5,164.49,348.5,164Z"></path><path d="M353.1,162.65v3.73h-.43l-2.24-2.78v2.78h-.53v-3.73h.43l2.24,2.78v-2.78Z"></path><path d="M251.5,203.18h-2l-.41.93h-.55l1.69-3.73h.53l1.69,3.73h-.56Zm-.18-.43-.81-1.83-.8,1.83Z" style="fill:#263238"></path><path d="M253,200.38h1.57a1.87,1.87,0,1,1,0,3.73H253Zm1.54,3.26a1.4,1.4,0,1,0,0-2.8h-1v2.8Z" style="fill:#263238"></path><path d="M257.39,202.5v-2.12h.54v2.1c0,.82.37,1.2,1.05,1.2s1-.38,1-1.2v-2.1h.52v2.12a1.58,1.58,0,1,1-3.16,0Z" style="fill:#263238"></path><path d="M261.64,200.38h.53v3.26h2v.47h-2.55Z" style="fill:#263238"></path><path d="M265.19,200.84h-1.27v-.46H267v.46h-1.28v3.27h-.53Z" style="fill:#263238"></path><path d="M267.19,203.68l.2-.41a1.92,1.92,0,0,0,1.23.43c.64,0,.92-.25.92-.58,0-.91-2.26-.33-2.26-1.72,0-.57.45-1.06,1.43-1.06a2.14,2.14,0,0,1,1.2.33l-.18.42a2,2,0,0,0-1-.3c-.63,0-.91.27-.91.59,0,.91,2.26.34,2.26,1.71,0,.57-.46,1.06-1.44,1.06A2.21,2.21,0,0,1,267.19,203.68Z" style="fill:#263238"></path><path d="M269.74,219.4a6.76,6.76,0,0,1,.75-.11,5.43,5.43,0,0,0,2-.75,5.52,5.52,0,0,0,2.18-2.52,5.43,5.43,0,0,0-.05-4.33,5.36,5.36,0,0,0-4.1-3.08c-.94-.12-2,0-3.07-.05h-3.28l-14.62,0a5.28,5.28,0,0,0-2.54,9.92,5.59,5.59,0,0,0,1.49.55,8.18,8.18,0,0,0,1.57.11h3.1l5.56,0,8.05.09,2.19,0a3.44,3.44,0,0,1,.76.05,4.48,4.48,0,0,1-.76,0l-2.19.05-8.05.08-5.56,0-3.1,0a8.63,8.63,0,0,1-1.66-.11,6.14,6.14,0,0,1-1.63-.59,5.76,5.76,0,0,1-2.44-2.56,5.78,5.78,0,0,1,5.21-8.3l14.62,0h3.28c1.08,0,2.08,0,3.13.08a5.69,5.69,0,0,1,4.36,7.95,5.6,5.6,0,0,1-2.35,2.58,4.93,4.93,0,0,1-2.09.68A3.48,3.48,0,0,1,269.74,219.4Z" style="fill:#e0e0e0"></path><path d="M261,215.31v.86h-3.46v-.69l1.77-1.67c.4-.38.47-.62.47-.84s-.25-.57-.73-.57a1.12,1.12,0,0,0-.95.46l-.77-.5a2.11,2.11,0,0,1,1.82-.85c1,0,1.7.52,1.7,1.35a1.8,1.8,0,0,1-.77,1.45l-1,1Z" style="fill:#263238"></path><rect x="266.99" y="212.29" width="1" height="3.52" style="fill:#263238"></rect><rect x="265.73" y="213.55" width="3.52" height="1" style="fill:#263238"></rect><path d="M287.59,202.24a1.88,1.88,0,0,1,2-1.9,1.82,1.82,0,0,1,1.42.58l-.35.33a1.38,1.38,0,0,0-1.05-.44,1.44,1.44,0,1,0,0,2.87,1.39,1.39,0,0,0,1.05-.45l.35.33a1.83,1.83,0,0,1-1.42.59A1.88,1.88,0,0,1,287.59,202.24Z" style="fill:#263238"></path><path d="M295,200.38v3.73h-.54v-1.66h-2.14v1.66h-.53v-3.73h.53V202h2.14v-1.6Z" style="fill:#263238"></path><path d="M296.06,200.38h.54v3.73h-.54Z" style="fill:#263238"></path><path d="M297.71,200.38h.54v3.26h2v.47h-2.56Z" style="fill:#263238"></path><path d="M300.88,200.38h1.57a1.87,1.87,0,1,1,0,3.73h-1.57Zm1.54,3.26a1.4,1.4,0,1,0,0-2.8h-1v2.8Z" style="fill:#263238"></path><path d="M306.19,219.4a6.76,6.76,0,0,1,.75-.11,5.44,5.44,0,0,0,4.14-7.6,5.36,5.36,0,0,0-4.11-3.08c-.93-.12-2,0-3.06-.05h-3.28l-14.62,0a5.28,5.28,0,0,0-2.54,9.92,5.47,5.47,0,0,0,1.49.55,8.12,8.12,0,0,0,1.57.11h3.09l5.56,0,8.06.09,2.18,0a3.5,3.5,0,0,1,.77.05,4.55,4.55,0,0,1-.77,0l-2.18.05-8.06.08-5.56,0-3.09,0a8.63,8.63,0,0,1-1.66-.11,6.14,6.14,0,0,1-1.63-.59,5.76,5.76,0,0,1-2.44-2.56,5.78,5.78,0,0,1,5.21-8.3l14.62,0h3.28c1.08,0,2.08,0,3.13.08a5.72,5.72,0,0,1,4.37,3.36,5.66,5.66,0,0,1,0,4.59,5.53,5.53,0,0,1-2.34,2.58,5,5,0,0,1-2.09.68A3.44,3.44,0,0,1,306.19,219.4Z" style="fill:#e0e0e0"></path><path d="M294,213.88c0-1.51.84-2.37,2-2.37s2,.86,2,2.37-.83,2.37-2,2.37S294,215.39,294,213.88Zm2.87,0c0-1-.37-1.47-.9-1.47s-.89.43-.89,1.47.36,1.47.89,1.47S296.9,214.92,296.9,213.88Z" style="fill:#263238"></path><rect x="303.44" y="212.29" width="1" height="3.52" style="fill:#263238"></rect><rect x="302.17" y="213.55" width="3.52" height="1" style="fill:#263238"></rect><path d="M409.1,227.83c0,.14-39.44.26-88.09.26s-88.09-.12-88.09-.26,39.43-.26,88.09-.26S409.1,227.68,409.1,227.83Z" style="fill:#e0e0e0"></path><path d="M344.39,254.57c0,.15-10.59.26-23.64.26s-23.64-.11-23.64-.26,10.58-.26,23.64-.26S344.39,254.43,344.39,254.57Z" style="fill:#e0e0e0"></path><path d="M344.21,260c0,.15-10.58.26-23.64.26s-23.64-.11-23.64-.26,10.59-.26,23.64-.26S344.21,259.87,344.21,260Z" style="fill:#e0e0e0"></path><path d="M318.9,265.46c0,.14-4.88.26-10.89.26s-10.9-.12-10.9-.26,4.88-.27,10.9-.27S318.9,265.31,318.9,265.46Z" style="fill:#e0e0e0"></path><path d="M392.69,246.67c0,.14-6.94.26-15.5.26s-15.5-.12-15.5-.26,6.94-.26,15.5-.26S392.69,246.53,392.69,246.67Z" style="fill:#263238"></path><path d="M275,267.13c0,.14-5.73.26-12.79.26s-12.79-.12-12.79-.26,5.72-.26,12.79-.26S275,267,275,267.13Z" style="fill:#1FAB89"></path><path d="M288.63,274.18c-.14,0-.26-8.94-.26-20s.12-20,.26-20,.26,8.93.26,20S288.77,274.18,288.63,274.18Z" style="fill:#263238"></path><rect x="239.69" y="280.12" width="164.46" height="40.95" style="fill:#f5f5f5"></rect><path d="M390.08,314.4H366.2a7.42,7.42,0,0,1-7.41-7.42h0a7.42,7.42,0,0,1,7.41-7.42h23.88A7.42,7.42,0,0,1,397.5,307h0A7.42,7.42,0,0,1,390.08,314.4Z" style="fill:#455a64"></path><path d="M302.18,292.49a1.81,1.81,0,0,1-1.9,2,1.94,1.94,0,0,1-1-.26l.32-.63a1.17,1.17,0,0,0,.69.18,1,1,0,0,0,1.05-1.08,1.26,1.26,0,0,1-.92.33,1.18,1.18,0,0,1-1.29-1.16,1.29,1.29,0,0,1,1.41-1.24C301.55,290.64,302.18,291.29,302.18,292.49Zm-1-.65c0-.32-.24-.55-.65-.55a.56.56,0,1,0,0,1.11A.58.58,0,0,0,301.22,291.84Z" style="fill:#263238"></path><path d="M302.57,292a.52.52,0,0,1,1,0,.52.52,0,1,1-1,0Zm0,1.91a.52.52,0,0,1,1,0,.52.52,0,1,1-1,0Z" style="fill:#263238"></path><path d="M304,292.57c0-1.23.68-1.93,1.6-1.93s1.6.7,1.6,1.93-.68,1.93-1.6,1.93S304,293.8,304,292.57Zm2.33,0c0-.85-.3-1.2-.73-1.2s-.73.35-.73,1.2.3,1.2.73,1.2S306.32,293.42,306.32,292.57Z" style="fill:#263238"></path><path d="M307.61,292.57c0-1.23.68-1.93,1.59-1.93s1.6.7,1.6,1.93-.68,1.93-1.6,1.93S307.61,293.8,307.61,292.57Zm2.32,0c0-.85-.3-1.2-.73-1.2s-.72.35-.72,1.2.3,1.2.72,1.2S309.93,293.42,309.93,292.57Z" style="fill:#263238"></path><path d="M312.8,292.6h1.51v.67H312.8Z" style="fill:#263238"></path><path d="M317.73,290.71v3.72h-.86v-3h-.75v-.69Z" style="fill:#263238"></path><path d="M321.16,293.73v.7h-2.81v-.56l1.43-1.35c.33-.32.39-.51.39-.69s-.2-.46-.59-.46a.92.92,0,0,0-.78.37l-.62-.41a1.71,1.71,0,0,1,1.48-.69c.83,0,1.38.43,1.38,1.1a1.48,1.48,0,0,1-.62,1.18l-.86.81Z" style="fill:#263238"></path><path d="M321.49,292a.52.52,0,0,1,1,0,.52.52,0,0,1-1,0Zm0,1.91a.52.52,0,0,1,1,0,.52.52,0,1,1-1,0Z" style="fill:#263238"></path><path d="M322.92,292.57c0-1.23.68-1.93,1.59-1.93s1.6.7,1.6,1.93-.68,1.93-1.6,1.93S322.92,293.8,322.92,292.57Zm2.32,0c0-.85-.3-1.2-.73-1.2s-.72.35-.72,1.2.3,1.2.72,1.2S325.24,293.42,325.24,292.57Z" style="fill:#263238"></path><path d="M326.53,292.57c0-1.23.68-1.93,1.6-1.93s1.6.7,1.6,1.93-.68,1.93-1.6,1.93S326.53,293.8,326.53,292.57Zm2.33,0c0-.85-.3-1.2-.73-1.2s-.73.35-.73,1.2.3,1.2.73,1.2S328.86,293.42,328.86,292.57Z" style="fill:#263238"></path><path d="M335.12,292.06c0,.83-.62,1.35-1.62,1.35h-.75v1h-.86v-3.72h1.61C334.5,290.71,335.12,291.22,335.12,292.06Zm-.87,0c0-.41-.27-.65-.8-.65h-.7v1.29h.7C334,292.7,334.25,292.46,334.25,292.06Z" style="fill:#263238"></path><path d="M339.12,294.43V292.2L338,294h-.39l-1.09-1.8v2.19h-.81v-3.72h.71l1.4,2.31,1.37-2.31h.71v3.72Z" style="fill:#263238"></path><path d="M375,308.05c0,.91-.67,1.7-2.14,1.7a3.51,3.51,0,0,1-2-.55l.47-.91a2.45,2.45,0,0,0,1.47.46c.59,0,1-.25,1-.66s-.26-.67-1.2-.67H371.3l.26-2.9h3.14v1h-2.15l-.08,1h.42C374.41,306.45,375,307.14,375,308.05Z" style="fill:#fff"></path><path d="M375.5,307.09c0-1.7.94-2.66,2.21-2.66s2.2,1,2.2,2.66-.93,2.66-2.2,2.66S375.5,308.79,375.5,307.09Zm3.21,0c0-1.17-.41-1.65-1-1.65s-1,.48-1,1.65.41,1.66,1,1.66S378.71,308.26,378.71,307.09Z" style="fill:#fff"></path><path d="M385.28,308.13l.76.71a2.63,2.63,0,0,1-2.12.91,2.67,2.67,0,0,1-2.67-1.84h-.83v-.62h.72v-.4h-.72v-.61h.83a2.68,2.68,0,0,1,2.67-1.85,2.63,2.63,0,0,1,2.12.91l-.76.71a1.66,1.66,0,0,0-1.3-.61,1.58,1.58,0,0,0-1.45.84h1.86v.61h-2.05a1.41,1.41,0,0,0,0,.2,1.34,1.34,0,0,0,0,.2h2.05v.62h-1.86a1.59,1.59,0,0,0,1.45.83A1.66,1.66,0,0,0,385.28,308.13Z" style="fill:#fff"></path><path d="M279.28,294.69c-1.72-2.23-6.56-1.14-9.92.44,0,0-2.31.95-3.18,1.45h0l-7.6-1.36a3.16,3.16,0,0,0-1.82.22l-.64.29a.42.42,0,0,0,0,.76l5.5,2.7v.07l-5.74,3.36-.09.05a5,5,0,0,1-3.57.52l-3-.69a.75.75,0,0,0-.72,1.28l3.3,3.06a1.81,1.81,0,0,0,1.91.36l1.66-.66,8.37-3.46-1.19,4.6a.3.3,0,0,0,.3.37h.38a1.53,1.53,0,0,0,1.31-.7l3.62-6.11,9.88-4.08C279.36,296.65,279.88,295.57,279.28,294.69Z" style="fill:#455a64"></path><path d="M279.28,247c-1.72-2.24-6.56-1.14-9.92.44,0,0-2.31.94-3.18,1.45h0l-7.6-1.35a3.16,3.16,0,0,0-1.82.22l-.64.29a.42.42,0,0,0,0,.76l5.5,2.7v.07l-5.74,3.36-.09,0a4.94,4.94,0,0,1-3.57.51l-3-.68a.77.77,0,0,0-.45,0,.75.75,0,0,0-.27,1.26l3.3,3.07a1.79,1.79,0,0,0,1.91.35l1.66-.65,8.37-3.46-1.19,4.6a.3.3,0,0,0,.3.37h.38a1.53,1.53,0,0,0,1.31-.7l3.62-6.11,9.88-4.09C279.36,249,279.88,247.87,279.28,247Z" style="fill:#1FAB89"></path><path d="M344.39,301.25c0,.15-10.59.26-23.64.26s-23.64-.11-23.64-.26,10.58-.26,23.64-.26S344.39,301.11,344.39,301.25Z" style="fill:#e0e0e0"></path><path d="M344.21,306.69c0,.15-10.58.26-23.64.26s-23.64-.11-23.64-.26,10.59-.26,23.64-.26S344.21,306.55,344.21,306.69Z" style="fill:#e0e0e0"></path><path d="M318.9,312.13c0,.15-4.88.27-10.89.27s-10.9-.12-10.9-.27,4.88-.26,10.9-.26S318.9,312,318.9,312.13Z" style="fill:#e0e0e0"></path><path d="M392.69,293.35c0,.14-6.94.26-15.5.26s-15.5-.12-15.5-.26,6.94-.26,15.5-.26S392.69,293.2,392.69,293.35Z" style="fill:#263238"></path><path d="M275,313.81c0,.14-5.73.26-12.79.26s-12.79-.12-12.79-.26,5.72-.26,12.79-.26S275,313.66,275,313.81Z" style="fill:#455a64"></path><path d="M288.63,320.86c-.14,0-.26-8.94-.26-20s.12-20,.26-20,.26,8.93.26,20S288.77,320.86,288.63,320.86Z" style="fill:#263238"></path><rect x="239.69" y="326.8" width="164.46" height="40.95" style="fill:#f5f5f5"></rect><path d="M390.08,361.07H366.2a7.41,7.41,0,0,1-7.41-7.41h0a7.42,7.42,0,0,1,7.41-7.42h23.88a7.42,7.42,0,0,1,7.42,7.42h0A7.42,7.42,0,0,1,390.08,361.07Z" style="fill:#1FAB89"></path><path d="M302.18,339.17a1.81,1.81,0,0,1-1.9,2,1.94,1.94,0,0,1-1-.26l.32-.63a1.17,1.17,0,0,0,.69.18,1,1,0,0,0,1.05-1.08,1.26,1.26,0,0,1-.92.33,1.19,1.19,0,0,1-1.29-1.16,1.29,1.29,0,0,1,1.41-1.24C301.55,337.32,302.18,338,302.18,339.17Zm-1-.65c0-.32-.24-.55-.65-.55a.56.56,0,1,0,0,1.11A.58.58,0,0,0,301.22,338.52Z" style="fill:#263238"></path><path d="M302.57,338.72a.52.52,0,0,1,1,0,.52.52,0,1,1-1,0Zm0,1.91a.52.52,0,0,1,1,0,.52.52,0,1,1-1,0Z" style="fill:#263238"></path><path d="M304,339.25c0-1.23.68-1.93,1.6-1.93s1.6.7,1.6,1.93-.68,1.93-1.6,1.93S304,340.48,304,339.25Zm2.33,0c0-.85-.3-1.2-.73-1.2s-.73.35-.73,1.2.3,1.2.73,1.2S306.32,340.1,306.32,339.25Z" style="fill:#263238"></path><path d="M307.61,339.25c0-1.23.68-1.93,1.59-1.93s1.6.7,1.6,1.93-.68,1.93-1.6,1.93S307.61,340.48,307.61,339.25Zm2.32,0c0-.85-.3-1.2-.73-1.2s-.72.35-.72,1.2.3,1.2.72,1.2S309.93,340.1,309.93,339.25Z" style="fill:#263238"></path><path d="M312.8,339.28h1.51V340H312.8Z" style="fill:#263238"></path><path d="M317.73,337.39v3.72h-.86v-3h-.75v-.69Z" style="fill:#263238"></path><path d="M321.16,340.41v.7h-2.81v-.56l1.43-1.35c.33-.32.39-.51.39-.69s-.2-.46-.59-.46a.92.92,0,0,0-.78.37l-.62-.41a1.71,1.71,0,0,1,1.48-.69c.83,0,1.38.43,1.38,1.1a1.48,1.48,0,0,1-.62,1.18l-.86.81Z" style="fill:#263238"></path><path d="M321.49,338.72a.52.52,0,0,1,1,0,.52.52,0,0,1-1,0Zm0,1.91a.52.52,0,0,1,1,0,.52.52,0,1,1-1,0Z" style="fill:#263238"></path><path d="M322.92,339.25c0-1.23.68-1.93,1.59-1.93s1.6.7,1.6,1.93-.68,1.93-1.6,1.93S322.92,340.48,322.92,339.25Zm2.32,0c0-.85-.3-1.2-.73-1.2s-.72.35-.72,1.2.3,1.2.72,1.2S325.24,340.1,325.24,339.25Z" style="fill:#263238"></path><path d="M326.53,339.25c0-1.23.68-1.93,1.6-1.93s1.6.7,1.6,1.93-.68,1.93-1.6,1.93S326.53,340.48,326.53,339.25Zm2.33,0c0-.85-.3-1.2-.73-1.2s-.73.35-.73,1.2.3,1.2.73,1.2S328.86,340.1,328.86,339.25Z" style="fill:#263238"></path><path d="M335.12,338.74c0,.83-.62,1.35-1.62,1.35h-.75v1h-.86v-3.72h1.61C334.5,337.39,335.12,337.9,335.12,338.74Zm-.87,0c0-.41-.27-.65-.8-.65h-.7v1.29h.7C334,339.38,334.25,339.14,334.25,338.74Z" style="fill:#263238"></path><path d="M339.12,341.11v-2.23l-1.1,1.84h-.39l-1.09-1.8v2.19h-.81v-3.72h.71l1.4,2.31,1.37-2.31h.71v3.72Z" style="fill:#263238"></path><path d="M372.11,351.2v5.15h-1.19v-4.2h-1v-.95Z" style="fill:#fff"></path><path d="M373,353.77c0-1.7.94-2.66,2.2-2.66s2.21,1,2.21,2.66-.93,2.66-2.21,2.66S373,355.47,373,353.77Zm3.21,0c0-1.17-.41-1.65-1-1.65s-1,.48-1,1.65.42,1.66,1,1.66S376.22,354.94,376.22,353.77Z" style="fill:#fff"></path><path d="M378,353.77c0-1.7.94-2.66,2.2-2.66s2.21,1,2.21,2.66-.93,2.66-2.21,2.66S378,355.47,378,353.77Zm3.21,0c0-1.17-.41-1.65-1-1.65s-1,.48-1,1.65.42,1.66,1,1.66S381.21,354.94,381.21,353.77Z" style="fill:#fff"></path><path d="M387.78,354.81l.76.7a2.62,2.62,0,0,1-2.12.92,2.67,2.67,0,0,1-2.67-1.84h-.83V354h.72a1.34,1.34,0,0,1,0-.2,1.41,1.41,0,0,1,0-.2h-.72V353h.83a2.68,2.68,0,0,1,2.67-1.85,2.65,2.65,0,0,1,2.12.91l-.76.71a1.68,1.68,0,0,0-1.3-.61A1.61,1.61,0,0,0,385,353h1.86v.61h-2a1.41,1.41,0,0,0,0,.2,1.34,1.34,0,0,0,0,.2h2v.62H385a1.62,1.62,0,0,0,1.46.83A1.68,1.68,0,0,0,387.78,354.81Z" style="fill:#fff"></path><path d="M279.28,341.37c-1.72-2.23-6.56-1.14-9.92.44,0,0-2.31.94-3.18,1.45h0l-7.6-1.36a3.16,3.16,0,0,0-1.82.22l-.64.29a.42.42,0,0,0,0,.76l5.5,2.7V346l-5.74,3.36-.09.05a5,5,0,0,1-3.57.52l-3-.69a.75.75,0,0,0-.72,1.28l3.3,3.06a1.81,1.81,0,0,0,1.91.36l1.66-.66,8.37-3.46-1.19,4.6a.3.3,0,0,0,.3.37h.38a1.53,1.53,0,0,0,1.31-.7l3.62-6.11,9.88-4.09C279.36,343.33,279.88,342.25,279.28,341.37Z" style="fill:#1FAB89"></path><path d="M344.39,347.93c0,.15-10.59.26-23.64.26s-23.64-.11-23.64-.26,10.58-.26,23.64-.26S344.39,347.79,344.39,347.93Z" style="fill:#e0e0e0"></path><path d="M344.21,353.37c0,.15-10.58.26-23.64.26s-23.64-.11-23.64-.26,10.59-.26,23.64-.26S344.21,353.23,344.21,353.37Z" style="fill:#e0e0e0"></path><path d="M318.9,358.81c0,.15-4.88.26-10.89.26s-10.9-.11-10.9-.26,4.88-.26,10.9-.26S318.9,358.67,318.9,358.81Z" style="fill:#e0e0e0"></path><path d="M392.69,340c0,.14-6.94.26-15.5.26s-15.5-.12-15.5-.26,6.94-.26,15.5-.26S392.69,339.88,392.69,340Z" style="fill:#263238"></path><path d="M275,360.49c0,.14-5.73.26-12.79.26s-12.79-.12-12.79-.26,5.72-.26,12.79-.26S275,360.34,275,360.49Z" style="fill:#1FAB89"></path><path d="M288.63,367.54c-.14,0-.26-8.94-.26-20s.12-20,.26-20,.26,8.93.26,20S288.77,367.54,288.63,367.54Z" style="fill:#263238"></path><rect x="239.69" y="373.48" width="164.46" height="40.94" style="fill:#f5f5f5"></rect><path d="M390.08,407.75H366.2a7.41,7.41,0,0,1-7.41-7.41h0a7.42,7.42,0,0,1,7.41-7.42h23.88a7.42,7.42,0,0,1,7.42,7.42h0A7.42,7.42,0,0,1,390.08,407.75Z" style="fill:#455a64"></path><path d="M302.18,385.85a1.8,1.8,0,0,1-1.9,2,2,2,0,0,1-1-.25l.32-.63a1.25,1.25,0,0,0,.69.18,1,1,0,0,0,1.05-1.08,1.31,1.31,0,0,1-.92.33,1.19,1.19,0,0,1-1.29-1.16,1.29,1.29,0,0,1,1.41-1.24C301.55,384,302.18,384.64,302.18,385.85Zm-1-.65a.57.57,0,0,0-.65-.56.56.56,0,1,0,0,1.12A.58.58,0,0,0,301.22,385.2Z" style="fill:#263238"></path><path d="M302.57,385.4a.52.52,0,0,1,1,0,.52.52,0,1,1-1,0Zm0,1.91a.52.52,0,0,1,1,0,.52.52,0,1,1-1,0Z" style="fill:#263238"></path><path d="M304,385.93c0-1.23.68-1.93,1.6-1.93s1.6.7,1.6,1.93-.68,1.92-1.6,1.92S304,387.16,304,385.93Zm2.33,0c0-.85-.3-1.2-.73-1.2s-.73.35-.73,1.2.3,1.2.73,1.2S306.32,386.77,306.32,385.93Z" style="fill:#263238"></path><path d="M307.61,385.93c0-1.23.68-1.93,1.59-1.93s1.6.7,1.6,1.93-.68,1.92-1.6,1.92S307.61,387.16,307.61,385.93Zm2.32,0c0-.85-.3-1.2-.73-1.2s-.72.35-.72,1.2.3,1.2.72,1.2S309.93,386.77,309.93,385.93Z" style="fill:#263238"></path><path d="M312.8,386h1.51v.67H312.8Z" style="fill:#263238"></path><path d="M317.73,384.06v3.73h-.86v-3h-.75v-.7Z" style="fill:#263238"></path><path d="M321.16,387.09v.7h-2.81v-.56l1.43-1.36c.33-.31.39-.5.39-.68s-.2-.47-.59-.47a.93.93,0,0,0-.78.38l-.62-.41a1.71,1.71,0,0,1,1.48-.69c.83,0,1.38.43,1.38,1.1a1.5,1.5,0,0,1-.62,1.18l-.86.81Z" style="fill:#263238"></path><path d="M321.49,385.4a.52.52,0,0,1,1,0,.52.52,0,1,1-1,0Zm0,1.91a.52.52,0,0,1,1,0,.52.52,0,0,1-1,0Z" style="fill:#263238"></path><path d="M322.92,385.93c0-1.23.68-1.93,1.59-1.93s1.6.7,1.6,1.93-.68,1.92-1.6,1.92S322.92,387.16,322.92,385.93Zm2.32,0c0-.85-.3-1.2-.73-1.2s-.72.35-.72,1.2.3,1.2.72,1.2S325.24,386.77,325.24,385.93Z" style="fill:#263238"></path><path d="M326.53,385.93c0-1.23.68-1.93,1.6-1.93s1.6.7,1.6,1.93-.68,1.92-1.6,1.92S326.53,387.16,326.53,385.93Zm2.33,0c0-.85-.3-1.2-.73-1.2s-.73.35-.73,1.2.3,1.2.73,1.2S328.86,386.77,328.86,385.93Z" style="fill:#263238"></path><path d="M335.12,385.42c0,.83-.62,1.34-1.62,1.34h-.75v1h-.86v-3.73h1.61C334.5,384.06,335.12,384.58,335.12,385.42Zm-.87,0c0-.41-.27-.65-.8-.65h-.7v1.29h.7C334,386.06,334.25,385.82,334.25,385.42Z" style="fill:#263238"></path><path d="M339.12,387.79v-2.23L338,387.4h-.39l-1.09-1.8v2.19h-.81v-3.73h.71l1.4,2.32,1.37-2.32h.71v3.73Z" style="fill:#263238"></path><path d="M373,402.05v1h-3.89v-.77l2-1.87c.46-.44.54-.7.54-.95,0-.41-.28-.64-.83-.64a1.26,1.26,0,0,0-1.06.51l-.87-.56a2.38,2.38,0,0,1,2-.95c1.15,0,1.91.59,1.91,1.52a2.06,2.06,0,0,1-.86,1.63l-1.18,1.11Z" style="fill:#fff"></path><path d="M373.45,400.45c0-1.7.94-2.66,2.2-2.66s2.21,1,2.21,2.66-.93,2.66-2.21,2.66S373.45,402.15,373.45,400.45Zm3.21,0c0-1.17-.41-1.65-1-1.65s-1,.48-1,1.65.42,1.66,1,1.66S376.66,401.62,376.66,400.45Z" style="fill:#fff"></path><path d="M378.44,400.45c0-1.7.94-2.66,2.2-2.66s2.21,1,2.21,2.66-.93,2.66-2.21,2.66S378.44,402.15,378.44,400.45Zm3.21,0c0-1.17-.41-1.65-1-1.65s-1,.48-1,1.65.42,1.66,1,1.66S381.65,401.62,381.65,400.45Z" style="fill:#fff"></path><path d="M388.22,401.49l.76.7a2.62,2.62,0,0,1-2.12.92,2.67,2.67,0,0,1-2.67-1.84h-.83v-.62h.72a2,2,0,0,1,0-.4h-.72v-.62h.83a2.88,2.88,0,0,1,4.79-.93l-.76.71a1.66,1.66,0,0,0-1.3-.61,1.62,1.62,0,0,0-1.46.83h1.86v.62h-2a2,2,0,0,0,0,.4h2v.62h-1.86a1.62,1.62,0,0,0,1.46.83A1.66,1.66,0,0,0,388.22,401.49Z" style="fill:#fff"></path><path d="M279.28,388.05c-1.72-2.23-6.56-1.14-9.92.44,0,0-2.31.94-3.18,1.45h0l-7.6-1.36a3.16,3.16,0,0,0-1.82.22l-.64.29a.42.42,0,0,0,0,.76l5.5,2.7v.07L255.84,396l-.09.05a5,5,0,0,1-3.57.52l-3-.69a.75.75,0,0,0-.72,1.28l3.3,3.06a1.81,1.81,0,0,0,1.91.36l1.66-.66,8.37-3.46-1.19,4.6a.3.3,0,0,0,.3.37h.38a1.53,1.53,0,0,0,1.31-.7l3.62-6.11,9.88-4.09C279.36,390,279.88,388.93,279.28,388.05Z" style="fill:#455a64"></path><path d="M344.39,394.61c0,.14-10.59.26-23.64.26s-23.64-.12-23.64-.26,10.58-.26,23.64-.26S344.39,394.47,344.39,394.61Z" style="fill:#e0e0e0"></path><path d="M344.21,400.05c0,.15-10.58.26-23.64.26s-23.64-.11-23.64-.26,10.59-.26,23.64-.26S344.21,399.91,344.21,400.05Z" style="fill:#e0e0e0"></path><path d="M318.9,405.49c0,.15-4.88.26-10.89.26s-10.9-.11-10.9-.26,4.88-.26,10.9-.26S318.9,405.35,318.9,405.49Z" style="fill:#e0e0e0"></path><path d="M392.69,386.71c0,.14-6.94.26-15.5.26s-15.5-.12-15.5-.26,6.94-.26,15.5-.26S392.69,386.56,392.69,386.71Z" style="fill:#263238"></path><path d="M275,407.17c0,.14-5.73.26-12.79.26s-12.79-.12-12.79-.26,5.72-.26,12.79-.26S275,407,275,407.17Z" style="fill:#455a64"></path><path d="M288.63,414.22c-.14,0-.26-8.94-.26-20s.12-20,.26-20,.26,8.93.26,20S288.77,414.22,288.63,414.22Z" style="fill:#263238"></path><path d="M335.26,72.26c-1.63-2.11-6.21-1.08-9.4.42,0,0-2.18.89-3,1.37h0l-7.2-1.29a2.91,2.91,0,0,0-1.72.22l-.61.27a.4.4,0,0,0,0,.72l5.22,2.56v.06c-2.93,1.72-5.45,3.18-5.45,3.18l-.08,0a4.7,4.7,0,0,1-3.39.49l-2.79-.65a.79.79,0,0,0-.43,0,.72.72,0,0,0-.25,1.2l3.12,2.9a1.74,1.74,0,0,0,1.82.34l1.57-.62,7.93-3.28-1.12,4.36a.28.28,0,0,0,.27.35h.37a1.45,1.45,0,0,0,1.24-.67l3.43-5.79,9.35-3.86C335.34,74.12,335.83,73.1,335.26,72.26Z" style="fill:#263238"></path><path d="M300.58,89.21v2.27h4v1.6h-4v3.13h-2V87.62h6.49v1.59Z" style="fill:#263238"></path><path d="M306.44,87.62h2v7h4.31v1.62h-6.29Z" style="fill:#263238"></path><path d="M313.85,87.62h2v8.59h-2Z" style="fill:#263238"></path><path d="M323.67,91.78h1.82v3.48A6,6,0,0,1,322,96.35a4.45,4.45,0,1,1,0-8.88,4.6,4.6,0,0,1,3.6,1.49l-1.28,1.17a2.92,2.92,0,0,0-2.22-1,2.75,2.75,0,1,0,0,5.5,3.13,3.13,0,0,0,1.54-.37Z" style="fill:#263238"></path><path d="M335.2,87.62v8.59h-2V92.68h-3.91v3.53h-2V87.62h2V91h3.91V87.62Z" style="fill:#263238"></path><path d="M339,89.24h-2.75V87.62h7.48v1.62H341v7h-2Z" style="fill:#263238"></path><path d="M308.48,102.9c0,.8-.59,1.26-1.77,1.26h-2.16v-4.7h2c1.05,0,1.65.44,1.65,1.2a1.09,1.09,0,0,1-.72,1.07A1.12,1.12,0,0,1,308.48,102.9Zm-3.43-3v1.7h1.5c.75,0,1.18-.29,1.18-.85s-.43-.85-1.18-.85Zm2.93,3c0-.61-.45-.88-1.27-.88h-1.66v1.77h1.66C307.53,103.75,308,103.48,308,102.86Z" style="fill:#263238"></path><path d="M309.2,101.81a2.47,2.47,0,1,1,2.47,2.39A2.37,2.37,0,0,1,309.2,101.81Zm4.44,0a2,2,0,1,0-2,1.94A1.9,1.9,0,0,0,313.64,101.81Z" style="fill:#263238"></path><path d="M314.84,101.81a2.47,2.47,0,1,1,2.47,2.39A2.37,2.37,0,0,1,314.84,101.81Zm4.44,0a2,2,0,1,0-2,1.94A1.9,1.9,0,0,0,319.28,101.81Z" style="fill:#263238"></path><path d="M322.35,102l-1,1v1.24h-.49v-4.7h.49v2.84l2.76-2.84h.57l-2,2.12,2.17,2.58h-.59Z" style="fill:#263238"></path><path d="M325.67,99.46h.5v4.7h-.5Z" style="fill:#263238"></path><path d="M331.63,99.46v4.7h-.41l-3-3.82v3.82h-.5v-4.7h.41l3,3.81V99.46Z" style="fill:#263238"></path><path d="M336.48,101.81H337v1.79a2.61,2.61,0,0,1-1.72.6,2.4,2.4,0,1,1,0-4.79,2.3,2.3,0,0,1,1.75.68l-.31.32a1.89,1.89,0,0,0-1.41-.55,1.95,1.95,0,1,0,0,3.89,2.06,2.06,0,0,0,1.23-.36Z" style="fill:#263238"></path><path d="M409.1,114.21c0,.14-39.32.26-87.81.26s-87.81-.12-87.81-.26,39.31-.26,87.81-.26S409.1,114.06,409.1,114.21Z" style="fill:#e0e0e0"></path><path d="M312.6,147.62H247.94a6.3,6.3,0,0,1-6.3-6.3h0a6.3,6.3,0,0,1,6.3-6.3H312.6a6.3,6.3,0,0,1,6.3,6.3h0A6.3,6.3,0,0,1,312.6,147.62Z" style="fill:#f5f5f5"></path><path d="M312.6,187.57H247.94a6.3,6.3,0,0,1-6.3-6.3h0a6.3,6.3,0,0,1,6.3-6.3H312.6a6.3,6.3,0,0,1,6.3,6.3h0A6.3,6.3,0,0,1,312.6,187.57Z" style="fill:#f5f5f5"></path><path d="M394.3,147.62H335a6.31,6.31,0,0,1-6.31-6.3h0A6.31,6.31,0,0,1,335,135H394.3a6.3,6.3,0,0,1,6.3,6.3h0A6.3,6.3,0,0,1,394.3,147.62Z" style="fill:#f5f5f5"></path><path d="M394.3,188.61H335a6.32,6.32,0,0,1-6.31-6.31h0A6.31,6.31,0,0,1,335,176H394.3a6.3,6.3,0,0,1,6.3,6.3h0A6.31,6.31,0,0,1,394.3,188.61Z" style="fill:#f5f5f5"></path></g><g id="freepik--Suitcase--inject-274"><path d="M132.76,347h-31a3.44,3.44,0,0,1-3.44-3.44h0a3.44,3.44,0,0,1,3.44-3.45h31a3.44,3.44,0,0,1,3.44,3.45h0A3.44,3.44,0,0,1,132.76,347Z" style="fill:#263238"></path><rect x="74.85" y="345.17" width="71.86" height="114.5" rx="8.96" style="fill:#1FAB89"></rect><g style="opacity:0.30000000000000004"><rect x="74.85" y="345.17" width="71.86" height="114.5" rx="8.96"></rect></g><rect x="91.91" y="345.17" width="71.86" height="114.5" rx="8.96" style="fill:#1FAB89"></rect><path d="M163.16,440.53c0,.14-16,.26-35.76.26s-35.77-.12-35.77-.26,16-.26,35.77-.26S163.16,440.39,163.16,440.53Z" style="fill:#263238"></path><path d="M163.16,424.75c0,.14-16,.26-35.76.26s-35.77-.12-35.77-.26,16-.26,35.77-.26S163.16,424.61,163.16,424.75Z" style="fill:#263238"></path><path d="M163.16,409c0,.14-16,.26-35.76.26s-35.77-.12-35.77-.26,16-.26,35.77-.26S163.16,408.82,163.16,409Z" style="fill:#263238"></path><path d="M163.16,393.19c0,.14-16,.26-35.76.26s-35.77-.12-35.77-.26,16-.26,35.77-.26S163.16,393,163.16,393.19Z" style="fill:#263238"></path><path d="M163.16,377.4c0,.15-16,.26-35.76.26s-35.77-.11-35.77-.26,16-.26,35.77-.26S163.16,377.26,163.16,377.4Z" style="fill:#263238"></path><path d="M163.16,361.62c0,.15-16,.26-35.76.26s-35.77-.11-35.77-.26,16-.26,35.77-.26S163.16,361.48,163.16,361.62Z" style="fill:#263238"></path><path d="M151.85,465.87a6.2,6.2,0,1,1-6.2-6.2A6.19,6.19,0,0,1,151.85,465.87Z" style="fill:#263238"></path><path d="M156.17,465.87a6.2,6.2,0,1,1-6.2-6.2A6.2,6.2,0,0,1,156.17,465.87Z" style="fill:#455a64"></path><path d="M102.54,465.87a6.2,6.2,0,1,1-6.2-6.2A6.19,6.19,0,0,1,102.54,465.87Z" style="fill:#263238"></path><path d="M106.86,465.87a6.2,6.2,0,1,1-6.2-6.2A6.2,6.2,0,0,1,106.86,465.87Z" style="fill:#455a64"></path><rect x="79.07" y="377.4" width="7.69" height="40.9" rx="3.84" style="fill:#263238"></rect><path d="M84.4,458.64a1.16,1.16,0,0,1-.25-.18l-.69-.57a12,12,0,0,1-2.13-2.72c-1.57-2.61-2.5-7-2.47-12.36.18-10.71.6-25.48,1-41.8s.9-31.07,1.21-41.8a37.31,37.31,0,0,1,.64-7.21,10.43,10.43,0,0,1,2.44-4.87A7.16,7.16,0,0,1,87,345.19a4.51,4.51,0,0,1,1.18-.26s-.41.08-1.14.36a7.14,7.14,0,0,0-2.74,2,10.32,10.32,0,0,0-2.31,4.8,38.41,38.41,0,0,0-.55,7.15c-.27,10.73-.64,25.49-1.06,41.8s-.88,31.06-1.18,41.79c-.08,5.33.79,9.67,2.28,12.26A13.37,13.37,0,0,0,84.4,458.64Z" style="fill:#263238"></path></g><g id="freepik--Character--inject-274"><path d="M207.55,268.63l-13.66,8.85-1.24,13.8s4,1.87,9.91-3.49,13.57-16.22,13.57-16.22Z" style="fill:#ffbe9d"></path><polygon points="206.94 274.29 202.47 251.61 190.53 256.33 193.58 286.21 206.94 274.29" style="fill:#ffbe9d"></polygon><path d="M239.28,245.58a1.48,1.48,0,0,0-1.1-.94L229.6,243a2.7,2.7,0,0,0-2.14.53l-25.9,20.38,1.06,1.18,9.16,2.79L239.43,246Z" style="fill:#263238"></path><path d="M232.32,247a.62.62,0,1,0,.3-.69A.55.55,0,0,0,232.32,247Z" style="fill:#fff"></path><path d="M239.43,246a11.74,11.74,0,0,1-1.69-.23l-4.57-.8-3.16-.58a1.8,1.8,0,0,0-1.52.31L227,245.87l-6.62,5.22c-4.71,3.7-9,7-12.1,9.4l-3.7,2.81a10.76,10.76,0,0,1-1.4,1,9.52,9.52,0,0,1,1.27-1.13l3.6-2.94c3.06-2.45,7.3-5.82,12-9.52l6.65-5.19,1.5-1.16a2.24,2.24,0,0,1,1.87-.38l3.14.65,4.55,1A9.83,9.83,0,0,1,239.43,246Z" style="fill:#455a64"></path><path d="M227.16,252.25s-.68-.38-1.76,1.48-4.32,7.16-4.32,7.16L218,257.56l-5-1s-1.38.61-.79,1.4a18.13,18.13,0,0,0,3.43,2.35l1.15,4L211.38,259s-2.33-.17-2.15,1.35,3.12,7.07,3.12,7.07l-3.13-1.34-3-3.61s-1.19-.34-1.1.8,2.85,6.1,2.85,6.1l4,4s2.69.68,3.21,0a9.86,9.86,0,0,0,.95-1.77s1.52.1,2-.49a4.42,4.42,0,0,0,.69-1.71s2.06,1.13,2.74,0a14.64,14.64,0,0,0,1.38-4.63c.09-1,4.21-9.34,4.21-9.64S228.73,252.14,227.16,252.25Z" style="fill:#ffbe9d"></path><path d="M215.34,273.41a2.93,2.93,0,0,1-1.39,0,8.9,8.9,0,0,1-3.12-1.22,8.7,8.7,0,0,1-2.45-2.29,2.88,2.88,0,0,1-.64-1.23,18.18,18.18,0,0,0,3.37,3.08A19.12,19.12,0,0,0,215.34,273.41Z" style="fill:#eb996e"></path><path d="M214.79,271.29c-.11.09-.81-.65-1.47-1.71s-1-2-.88-2.07.68.77,1.32,1.8S214.91,271.2,214.79,271.29Z" style="fill:#eb996e"></path><path d="M218.73,268c-.11.09-.81-.64-1.39-1.72a3.86,3.86,0,0,1-.69-2.1c.14-.05.58.81,1.14,1.85S218.85,267.91,218.73,268Z" style="fill:#eb996e"></path><path d="M222.53,265.56a13.1,13.1,0,0,1-.76-2.3A13.44,13.44,0,0,1,221,261a5.59,5.59,0,0,1,1.56,4.58Z" style="fill:#eb996e"></path><path d="M162.1,161.37a12.63,12.63,0,0,1,23.42-2.81c2.23,4.22,2.19,9.84,5.9,12.86,2.54,2.07,6.23,2.3,8.71,4.44,5.25,4.54,2.21,14.61,7.78,18.75a28.7,28.7,0,0,1-12,5.78,7.82,7.82,0,0,0-2.16-4c.94,2.55-.47,5.49-2.64,7.13s-4.93,2.24-7.6,2.71c-6.44,1.16-13.11,1.8-19.5.4s-12.52-5.15-15.53-11c-.77-1.47-1.36-3.1-2.59-4.21s-3.19-1.6-4.84-2.33a12.57,12.57,0,0,1-7.25-11.91c4.23-.27,7.14-4.35,8.84-8.23s3.09-8.27,6.57-10.69a9.3,9.3,0,0,1,14,4.33" style="fill:#263238"></path><path d="M152.11,170.66l-.18-3.56,21.26-4.73c6.57-.9,13.91,5.49,14.53,12.09.69,7.34,1.25,16.33.55,21.84-1.41,11.09-9.82,12.75-9.82,12.75l.29,13.49-24.36-.87Z" style="fill:#ffbe9d"></path><path d="M184.79,182.65a1.41,1.41,0,0,1-1.32,1.47,1.35,1.35,0,0,1-1.5-1.23,1.41,1.41,0,0,1,1.32-1.47A1.35,1.35,0,0,1,184.79,182.65Z" style="fill:#263238"></path><path d="M185.53,179.22c-.17.19-1.26-.57-2.78-.52s-2.62.85-2.79.67.08-.42.56-.79a3.82,3.82,0,0,1,2.22-.76,3.72,3.72,0,0,1,2.23.64C185.45,178.81,185.62,179.14,185.53,179.22Z" style="fill:#263238"></path><path d="M170.61,183.3a1.41,1.41,0,0,1-1.32,1.47,1.35,1.35,0,0,1-1.5-1.23,1.43,1.43,0,0,1,1.32-1.47A1.36,1.36,0,0,1,170.61,183.3Z" style="fill:#263238"></path><path d="M170.58,180c-.17.19-1.27-.57-2.79-.52s-2.61.85-2.79.67.09-.42.56-.79a3.85,3.85,0,0,1,2.23-.76,3.69,3.69,0,0,1,2.22.64C170.49,179.56,170.66,179.88,170.58,180Z" style="fill:#263238"></path><path d="M176.45,191.09a9.89,9.89,0,0,1,2.46-.52c.39-.06.76-.15.81-.41a1.94,1.94,0,0,0-.29-1.15c-.4-.93-.81-1.9-1.24-2.92-1.73-4.17-3-7.6-2.83-7.66s1.71,3.25,3.44,7.41c.41,1,.81,2,1.19,2.95a2.25,2.25,0,0,1,.25,1.52,1,1,0,0,1-.62.58,2.57,2.57,0,0,1-.66.12A10.35,10.35,0,0,1,176.45,191.09Z" style="fill:#263238"></path><path d="M178.44,209.08a29.21,29.21,0,0,1-15.27-3.49s4,7.61,15.35,6.24Z" style="fill:#eb996e"></path><path d="M175.92,194.78a2.74,2.74,0,0,0-2.49-.95,2.56,2.56,0,0,0-1.7,1,1.58,1.58,0,0,0-.06,1.81,1.83,1.83,0,0,0,2,.45,5.87,5.87,0,0,0,1.91-1.22,1.71,1.71,0,0,0,.42-.47.51.51,0,0,0,0-.57" style="fill:#eb996e"></path><path d="M172,192.28c.24,0,.3,1.63,1.75,2.76s3.2.89,3.22,1.12-.38.34-1.12.38a4.06,4.06,0,0,1-2.69-.85,3.52,3.52,0,0,1-1.36-2.31C171.72,192.69,171.89,192.27,172,192.28Z" style="fill:#263238"></path><path d="M170.79,175.66c-.14.42-1.67.27-3.45.54s-3.21.8-3.45.44c-.12-.18.12-.57.69-1a5.79,5.79,0,0,1,2.55-1,5.86,5.86,0,0,1,2.71.23C170.5,175.15,170.84,175.46,170.79,175.66Z" style="fill:#263238"></path><path d="M185.33,174c-.26.35-1.32,0-2.58.05s-2.32.31-2.58-.05c-.11-.17,0-.52.5-.86a3.68,3.68,0,0,1,4.15,0C185.28,173.48,185.44,173.83,185.33,174Z" style="fill:#263238"></path><path d="M172.86,162.84a11.75,11.75,0,0,1-8,10.35c-1.76.56-4,1-4.55,2.73s1.1,3.5,1.91,5.24a6,6,0,0,1-1.14,6.54c-.93,1-2.18,1.58-3.06,2.58a5.9,5.9,0,0,0-1.23,5,8.46,8.46,0,0,0,2.63,4.52c-4.17.24-8.75-1.88-10.11-5.83-.81-2.36-.39-4.93-.06-7.4a92.65,92.65,0,0,0,.69-17,4.48,4.48,0,0,1,.45-2.79,4.37,4.37,0,0,1,2.41-1.41,140.1,140.1,0,0,1,18-4.31" style="fill:#263238"></path><path d="M170.39,161.24a23.23,23.23,0,0,0,4.1,5.91,7.85,7.85,0,0,0,6.57,2.33c-.43-.72-.86-1.44-1.28-2.16a34.66,34.66,0,0,0,11.89,8c-2.2-4.14-4.48-8.38-8-11.48s-8.62-4.86-13-3.21" style="fill:#263238"></path><polygon points="180.1 218.18 152.92 216.09 157.48 230.49 180.74 238.24 183.83 233.02 180.1 218.18" style="fill:#ffbe9d"></polygon><path d="M128.5,241.56a23.06,23.06,0,0,0-30,19.45c-.72,6.6,1.42,13.32.29,19.86-.83,4.82-3.38,9.17-4.51,13.93-2.44,10.25,2.44,21.56,11,27.66s20.27,7.11,30.19,3.57l10.2-16-6.76-61.48-10.43-7" style="fill:#455a64"></path><path d="M144.79,285.1s-2.33,12.49-.93,14.38a5.73,5.73,0,0,0,3.71,2.12l45.08-3.49,1.5-24.81s4.54-17,2.45-24.21-11.06-29.28-11.06-29.28l-6.91-2.07s0,7.21-2.54,7.67-14.83.54-20.85-7.23l-2.32-2.09-12.86,9.37L146,276.27Z" style="fill:#1FAB89"></path><path d="M124.46,240.67s8.4-12.61,11.76-16.17c5.29-5.6,12.76-7.88,14.55-6.84,2.46,1.42,14.73,14.19,15.71,22.81s0,30,0,30l-10.37,3.13L156,263.27l-1.72-25.41s-4.25-12-14.21-12.4c0,0-10.41,8.75-10.78,17.17Z" style="fill:#455a64"></path><path d="M148.63,288.26l-20.79,19,5.49,7.33s25.29-16.12,27.93-32.19Z" style="fill:#455a64"></path><path d="M122.33,328.06a18.18,18.18,0,0,1-3-2.07,24.58,24.58,0,0,1-6.18-7.75,28,28,0,0,1-2.37-6.46,39,39,0,0,1-.84-7.86c-.1-5.57.81-11.64,1.88-17.94a115.45,115.45,0,0,0,2.1-17.84,46.06,46.06,0,0,0-.55-7.8c-.4-2.42-.91-4.67-1.16-6.76a19.27,19.27,0,0,1,0-5.68,12.29,12.29,0,0,1,1.36-4.06,8.23,8.23,0,0,1,1.67-2.14,4.77,4.77,0,0,1,.74-.58,10.22,10.22,0,0,0-2.23,2.81,12.61,12.61,0,0,0-1.26,4,19.88,19.88,0,0,0,.09,5.58c.28,2.07.8,4.3,1.22,6.74a44.72,44.72,0,0,1,.61,7.87,111.88,111.88,0,0,1-2.06,17.93,101.31,101.31,0,0,0-1.92,17.85,39.38,39.38,0,0,0,.78,7.76,27.8,27.8,0,0,0,2.28,6.4,25.26,25.26,0,0,0,6,7.76c.43.39.85.71,1.2,1s.66.51.91.68l.57.41A1.5,1.5,0,0,1,122.33,328.06Z" style="fill:#263238"></path><path d="M112.66,280.2a48.86,48.86,0,0,1-7.19.26,48.66,48.66,0,0,1-7.18-.26,50.37,50.37,0,0,1,7.18-.26A50.58,50.58,0,0,1,112.66,280.2Z" style="fill:#263238"></path><path d="M185.54,219.81s8.1,3.63,10.88,8.21,10.32,30.83,10.32,30.83l-10.6,2.09Z" style="fill:#1FAB89"></path><path d="M191.41,257.68s-2.44-24-3.46-25.54-2.67-13.24-7.85-14c0,0,5.46,1.26,8.61,3.28s6.57,12.92,6.57,12.92l2,19Z" style="fill:#455a64"></path><path d="M126.8,236.67a6.28,6.28,0,0,0-1.49-1.51,4.48,4.48,0,0,0-2.15-.66,5.06,5.06,0,0,0-2.67.68,8.15,8.15,0,0,0-3.28,3.85c-.55,1.23-.76,2.05-.84,2a5.75,5.75,0,0,1,.5-2.17,7.83,7.83,0,0,1,3.37-4.17,5.32,5.32,0,0,1,2.94-.7,4.61,4.61,0,0,1,2.33.83A2.79,2.79,0,0,1,126.8,236.67Z" style="fill:#263238"></path><path d="M154.27,237.86a12.17,12.17,0,0,1-.64-1.35l-.33-.74c-.14-.27-.29-.55-.46-.85s-.35-.63-.53-1l-.7-1a17.76,17.76,0,0,0-4.36-4.42,15.55,15.55,0,0,0-7.2-2.78h0a8.82,8.82,0,0,0-5.42,1.65l.06,0c-.07.07-.13.15-.2.23a110.05,110.05,0,0,0-10.72,15c-1.2,2-2.13,3.71-2.76,4.87l-.72,1.34a2,2,0,0,1-.29.46,2.44,2.44,0,0,1,.19-.5c.14-.32.35-.8.64-1.39.58-1.2,1.45-2.91,2.63-5a98.69,98.69,0,0,1,10.64-15.17l.19-.23,0,0,0,0a13.64,13.64,0,0,1,2.8-1.36,6.64,6.64,0,0,1,3-.36h0a15.64,15.64,0,0,1,7.43,2.93,17.28,17.28,0,0,1,4.38,4.59l.68,1.07c.18.35.34.69.5,1l.44.87.29.76A9.2,9.2,0,0,1,154.27,237.86Z" style="fill:#263238"></path><path d="M145.51,297.48a13.49,13.49,0,0,1-2.38,1.82,40.75,40.75,0,0,1-13.27,5.64,12.79,12.79,0,0,1-3,.45,25.5,25.5,0,0,1,2.87-.81A53.05,53.05,0,0,0,142.93,299,23.81,23.81,0,0,1,145.51,297.48Z" style="fill:#263238"></path><polygon points="265.32 402.33 258.99 463.75 239.66 463.49 238.27 398.58 265.32 402.33" style="fill:#ffbe9d"></polygon><path d="M259.55,457.9v1.29s21.77,8.81,22,12.94l-43.27-.33.7-14.4A24.75,24.75,0,0,0,259.55,457.9Z" style="fill:#455a64"></path><g style="opacity:0.6000000000000001"><path d="M243.32,462a1.77,1.77,0,0,0-1.24,2,1.7,1.7,0,0,0,2,1.24,1.87,1.87,0,0,0,1.3-2.13,1.77,1.77,0,0,0-2.2-1.07" style="fill:#fff"></path></g><g style="opacity:0.6000000000000001"><path d="M238.27,471.8l.17-3.47,41.41,1.59s1.92.86,1.69,2.21Z" style="fill:#fff"></path></g><path d="M259.7,459.31c0,.21-1.06.3-2.11,1s-1.6,1.55-1.8,1.47.13-1.31,1.41-2.1S259.75,459.11,259.7,459.31Z" style="fill:#263238"></path><path d="M264.23,461.22c0,.21-.87.56-1.6,1.45s-.94,1.83-1.15,1.82-.33-1.21.59-2.3S264.23,461,264.23,461.22Z" style="fill:#263238"></path><path d="M266.76,466.67c-.19.05-.47-1,.08-2.16s1.54-1.61,1.63-1.43-.53.79-1,1.74S267,466.65,266.76,466.67Z" style="fill:#263238"></path><polygon points="271.03 417.77 300.43 451.25 286.62 464.78 251.74 434.31 271.03 417.77" style="fill:#ffbe9d"></polygon><path d="M296.67,446.73l.92.91s21.59-9.24,24.68-6.49l-30.73,30.47L281.82,461C288.49,458.57,293.5,454.07,296.67,446.73Z" style="fill:#455a64"></path><g style="opacity:0.6000000000000001"><path d="M288.17,461.17a1.77,1.77,0,0,0,.55,2.29,1.7,1.7,0,0,0,2.28-.53,1.86,1.86,0,0,0-.6-2.42,1.75,1.75,0,0,0-2.3.81" style="fill:#fff"></path></g><g style="opacity:0.6000000000000001"><path d="M291.54,471.62l-2.34-2.56,30.31-28.26s2-.76,2.76.35Z" style="fill:#fff"></path></g><path d="M297.78,447.62c.14.15-.54,1-.8,2.18s0,2.23-.22,2.31-.84-1-.5-2.48S297.68,447.45,297.78,447.62Z" style="fill:#263238"></path><path d="M302.32,445.75c.18.11-.21,1-.09,2.15s.63,2,.48,2.1-1.1-.61-1.22-2S302.18,445.61,302.32,445.75Z" style="fill:#263238"></path><path d="M308,447.8c-.11.16-1.06-.38-1.49-1.58s-.05-2.23.14-2.17.19.93.56,1.92S308.11,447.63,308,447.8Z" style="fill:#263238"></path><path d="M145.83,226.15a5.51,5.51,0,0,0-7.33.39c-3.68,3.68-9,9.86-9.18,14.87-.25,7.67-1.48,28-1.48,28l28.2-1s0-27-2.47-33.15C152.17,231.73,148.64,228.39,145.83,226.15Z" style="fill:#1FAB89"></path><path d="M131.09,269.37s-1.61,15.51.18,22.63c1.85,7.37,5.5,7.26,8.57,7.48s51.54-25.19,51.54-25.19L186,264.74l-36.49,11,.33-7.13Z" style="fill:#ffbe9d"></path><path d="M185.7,265l8.75-10.95,7.9-1.83,9.62,1.06a2,2,0,0,1-1.15,2.21l3.37.19a1.93,1.93,0,0,1-1.25,2.51l2.4.42a3.45,3.45,0,0,1-3.75,2,52.59,52.59,0,0,0-7.13-.48l-4.71,2.6,7-.29,5.11,1s.67,1.3-.48,1.61a32.85,32.85,0,0,1-5.59,0l-6.74,1.76s-1.44,4.33-2.31,5.29-5.68,2.21-5.68,2.21Z" style="fill:#ffbe9d"></path><path d="M214.19,255.71a12.51,12.51,0,0,1-2.62-.09c-1.61-.13-3.83-.34-6.28-.6l-2.35-.27h.1c-1.83.51-3.41.94-4.54,1.22a7.65,7.65,0,0,1-1.83.36,8.43,8.43,0,0,1,1.74-.67c1.11-.36,2.67-.85,4.49-1.4H203l2.36.25c2.44.26,4.66.53,6.26.75A13.4,13.4,0,0,1,214.19,255.71Z" style="fill:#eb996e"></path><path d="M214.77,258.54a11.25,11.25,0,0,1-2.37-.16c-1.46-.17-3.47-.43-5.68-.76l-2.2-.33h.13a41,41,0,0,1-5.54,2,39,39,0,0,1,5.35-2.42l.06,0h.07l2.21.31c2.21.32,4.21.64,5.65.9A10.86,10.86,0,0,1,214.77,258.54Z" style="fill:#eb996e"></path><path d="M191.08,274.29a8,8,0,0,1,.77-.26c.51-.16,1.27-.39,2.23-.74.47-.18,1-.38,1.57-.65a4.23,4.23,0,0,0,.82-.47,2.25,2.25,0,0,0,.6-.8,34.76,34.76,0,0,0,1.84-4.64l0-.08.09,0,6.73-1.79h.07c1.14.07,2.36.12,3.62.12a10.5,10.5,0,0,0,1.87-.13.61.61,0,0,0,.51-.47,1.39,1.39,0,0,0-.16-.83l.16.12-5.1-.95h.05l-7,.3-1.08,0,.95-.52,4.71-2.6.06,0h.06c1.79,0,3.66.08,5.57.27.53.06,1.05.12,1.57.21a3.44,3.44,0,0,0,1.43,0,3.39,3.39,0,0,0,2.08-1.79l.19.35-2.41-.42-.88-.16.83-.33a1.89,1.89,0,0,0,1-.87,1.68,1.68,0,0,0,.07-1.3l.22.16-3.37-.2-.92-.05.83-.42a2,2,0,0,0,.87-.81,1.69,1.69,0,0,0,.16-1.12l.21.18-9.63-1.09h.08l-7.91,1.79.1-.06-6.47,8-1.77,2.14-.47.55c-.11.12-.17.18-.18.17l.14-.21.43-.58L188,262c1.53-1.93,3.68-4.68,6.35-8.08l0,0,.06,0L202.3,252h.07l9.63,1h.17l0,.17a2.14,2.14,0,0,1-.19,1.47,2.44,2.44,0,0,1-1.09,1l-.1-.47,3.37.19h.17l0,.15a2.23,2.23,0,0,1-.08,1.72,2.43,2.43,0,0,1-1.31,1.12L213,258l2.41.43.33.05-.14.3a3.85,3.85,0,0,1-2.42,2.09,4,4,0,0,1-1.65,0c-.5-.08-1-.15-1.53-.2-1.88-.19-3.75-.25-5.52-.27l.13,0L199.87,263l-.13-.47,7-.28h.06l5.1,1,.12,0,0,.1a2,2,0,0,1,.2,1.13,1.07,1.07,0,0,1-.85.81,9.72,9.72,0,0,1-2,.14c-1.28,0-2.49-.08-3.65-.16h.06L199.12,267l.11-.11a31.54,31.54,0,0,1-1.93,4.66,2.51,2.51,0,0,1-.68.87,5.46,5.46,0,0,1-.88.48,16.86,16.86,0,0,1-1.6.61c-1,.32-1.74.53-2.26.66l-.59.14C191.15,274.29,191.09,274.3,191.08,274.29Z" style="fill:#eb996e"></path><path d="M127.35,269.37a1.47,1.47,0,0,1,.47-.06l1.37-.09,5.1-.24,17.49-.67-.24.24c.06-2.45,0-5.06-.12-7.75-.22-4.44-.61-8.66-.85-12.51-.14-1.93-.19-3.76-.35-5.46a32,32,0,0,0-.72-4.68,17.66,17.66,0,0,0-2.74-6.24c-.95-1.31-1.65-1.9-1.61-1.93a2.28,2.28,0,0,1,.51.41,11.51,11.51,0,0,1,1.27,1.4,17.23,17.23,0,0,1,2.92,6.27,31,31,0,0,1,.8,4.73c.18,1.71.25,3.54.39,5.46.28,3.85.68,8.07.9,12.52.14,2.7.18,5.33.1,7.8v.24h-.23l-17.5.49-5.11.09h-1.37Z" style="fill:#263238"></path><path d="M147.57,301.6S134.8,319,134.8,326s.27,17.41,8.58,24.91,109.88,95.25,109.88,95.25L278,424.3l-92.06-93s4.29-7.77,2.41-11a10.3,10.3,0,0,0-4.82-4.29l-.27-17.23Z" style="fill:#263238"></path><path d="M192.65,298.11l2.16,18.37s65.39,33.88,70.66,43.89c2.39,4.54,4.71,45.61,4.71,45.61l-32.24.73-4.17-32.55-17.3-9.35-30.93-31.43L175,299.48Z" style="fill:#263238"></path><path d="M163.16,300.91a4.36,4.36,0,0,1,.3,1.09,22,22,0,0,1,.37,3.05,18.39,18.39,0,0,1-.33,4.57,14,14,0,0,1-2.2,5.18,10.87,10.87,0,0,1-4.28,3.65,9.59,9.59,0,0,1-4.53.82,8,8,0,0,1-3-.82,4.84,4.84,0,0,1-.71-.44c-.16-.11-.23-.18-.22-.2a9.65,9.65,0,0,0,3.94,1.09,9.36,9.36,0,0,0,4.3-.89,10.6,10.6,0,0,0,4.06-3.51,15.9,15.9,0,0,0,2.59-9.43C163.41,302.5,163.07,300.92,163.16,300.91Z" style="fill:#263238"></path><path d="M188.23,313.36a6.15,6.15,0,0,1-1.69,1.31,19.1,19.1,0,0,1-4.73,2.1,18.84,18.84,0,0,1-5.12.76,6.51,6.51,0,0,1-2.13-.2,37.2,37.2,0,0,0,7.1-1.06A36.44,36.44,0,0,0,188.23,313.36Z" style="fill:#455a64"></path><path d="M186.25,301.05c0-.05.62-.22,1.39.36a1.83,1.83,0,0,1,.71,1.48,1.89,1.89,0,0,1-1.09,1.7,1.78,1.78,0,0,1-2-.45,1.49,1.49,0,0,1,.58-2.38c.25-.08.4,0,.4,0s-.59.15-.87.9a1.09,1.09,0,0,0,.24,1.17,1.36,1.36,0,0,0,1.42.3,1.46,1.46,0,0,0,.82-1.25,1.52,1.52,0,0,0-.47-1.18C186.82,301.13,186.24,301.14,186.25,301.05Z" style="fill:#455a64"></path><path d="M188.36,334.89a17.84,17.84,0,0,1-2.16-1.78,60.27,60.27,0,0,0-5.35-4.06,45.18,45.18,0,0,0-5.83-3.31,23.15,23.15,0,0,1-2.52-1.21,10.81,10.81,0,0,1,2.67.87,34.32,34.32,0,0,1,6,3.21,40.82,40.82,0,0,1,5.3,4.23A12.77,12.77,0,0,1,188.36,334.89Z" style="fill:#455a64"></path><path d="M192.49,322.57a6.74,6.74,0,0,1,2.88-5.91c.11.12-1,1.18-1.74,2.81S192.65,322.59,192.49,322.57Z" style="fill:#455a64"></path><path d="M266,451a10.74,10.74,0,0,1-1.7-1.74c-1-1.12-2.36-2.69-3.83-4.44a4.87,4.87,0,0,0-1.13-1.1,2.09,2.09,0,0,0-1.34-.27,5.5,5.5,0,0,0-2.31.95,5,5,0,0,1-2.19,1.08c0-.05.8-.45,2-1.38A5.5,5.5,0,0,1,257.9,443a2.61,2.61,0,0,1,1.66.31,5.18,5.18,0,0,1,1.26,1.21c1.47,1.75,2.78,3.35,3.71,4.53A11.38,11.38,0,0,1,266,451Z" style="fill:#455a64"></path><path d="M253.26,446.14s.14-.15.42-.41l1.27-1.15,4.89-4.39,18.05-16v.29l-46.71-46.57-33.55-33.56L194,340.64l-1.77-1.78c-.58-.59-1.16-1.17-1.78-1.69a10.12,10.12,0,0,1-3.09-3.67,4,4,0,0,1-.19-2.36c.18-.78.51-1.43.72-2.13a23.46,23.46,0,0,0,1-4.12,7.82,7.82,0,0,0-.3-3.87,11.18,11.18,0,0,0-2.25-2.88,10.47,10.47,0,0,0-2.78-1.93l-.09,0v-.09c-.06-5.24-.1-9.38-.13-12.24,0-1.4,0-2.49,0-3.25,0-.35,0-.62,0-.83s0-.28,0-.28a1,1,0,0,1,0,.28c0,.21,0,.48,0,.83,0,.76,0,1.85.09,3.25.06,2.85.15,7,.26,12.23l-.09-.13a10.79,10.79,0,0,1,2.9,2,11.29,11.29,0,0,1,2.34,3,8,8,0,0,1,.35,4.05,23.11,23.11,0,0,1-1,4.19c-.21.7-.54,1.4-.7,2.09a3.65,3.65,0,0,0,.18,2.14,9.9,9.9,0,0,0,3,3.49,23.72,23.72,0,0,1,1.79,1.69l1.78,1.78,3.68,3.65c10,9.95,21.42,21.38,33.6,33.52l46.63,46.67.14.15-.15.13L260,440.35l-5,4.31-1.3,1.11Z" style="fill:#455a64"></path><path d="M267.76,447.35a18.76,18.76,0,0,1-3-4.56,18.53,18.53,0,0,1-2-5.05c.14-.06,1.1,2.17,2.47,4.81S267.89,447.27,267.76,447.35Z" style="fill:#455a64"></path><path d="M274.13,442.83a22.51,22.51,0,0,1-7.08-9c.13-.07,1.41,2.16,3.37,4.63S274.23,442.72,274.13,442.83Z" style="fill:#455a64"></path><path d="M278.15,438.39a37.21,37.21,0,0,1-3.34-4.1,36.42,36.42,0,0,1-3.15-4.26,21.65,21.65,0,0,1,3.56,3.94A21.22,21.22,0,0,1,278.15,438.39Z" style="fill:#455a64"></path><path d="M282.35,431a15.55,15.55,0,0,1-3.37-2,15,15,0,0,1-3.06-2.44,14.68,14.68,0,0,1,3.36,2A15.2,15.2,0,0,1,282.35,431Z" style="fill:#455a64"></path><path d="M223.46,372.65c.1.1-4.35,4.19-9.92,9.12s-10.18,8.85-10.27,8.74,4.35-4.19,9.92-9.13S223.37,372.54,223.46,372.65Z" style="fill:#455a64"></path><path d="M222.61,374.38a8.75,8.75,0,0,1-1.17,2,39.61,39.61,0,0,1-3.44,4.29,40.71,40.71,0,0,1-4,3.79,8.64,8.64,0,0,1-1.86,1.32c-.1-.12,2.59-2.32,5.47-5.46S222.47,374.29,222.61,374.38Z" style="fill:#455a64"></path><path d="M165.07,302.58s0,.3-.14.83a13.86,13.86,0,0,1-.75,2.18,18.17,18.17,0,0,1-1.66,3,20.8,20.8,0,0,1-2.75,3.19,20.47,20.47,0,0,1-3.37,2.5,18.08,18.08,0,0,1-3.12,1.43,12.73,12.73,0,0,1-2.23.58,3,3,0,0,1-.84.09c0-.1,1.16-.31,2.94-1a19.44,19.44,0,0,0,3-1.5,21.28,21.28,0,0,0,3.27-2.47,22.18,22.18,0,0,0,2.71-3.07,21.34,21.34,0,0,0,1.71-2.88C164.68,303.71,165,302.55,165.07,302.58Z" style="fill:#455a64"></path><path d="M242.33,361.82a44.62,44.62,0,0,0-5.17,5.73,45.2,45.2,0,0,0-3.64,6.8,7.26,7.26,0,0,1,.61-2.21,22.62,22.62,0,0,1,2.61-4.89,22.2,22.2,0,0,1,3.72-4.11A7.19,7.19,0,0,1,242.33,361.82Z" style="fill:#455a64"></path><path d="M248.91,365.46c0,.16-3.55.81-7.64,2.54s-7.07,3.83-7.16,3.69a8.67,8.67,0,0,1,1.88-1.46,31.57,31.57,0,0,1,5.08-2.71,32.13,32.13,0,0,1,5.48-1.74A9.09,9.09,0,0,1,248.91,365.46Z" style="fill:#455a64"></path></g></svg>